<mxfile host="Electron" agent="Mozilla/5.0 (Windows NT 10.0; Win64; x64) AppleWebKit/537.36 (KHTML, like Gecko) draw.io/24.7.17 Chrome/128.0.6613.36 Electron/32.0.1 Safari/537.36" version="24.7.17">
  <diagram name="Seite-1" id="NknpiXraVe4axXX2CJZf">
    <mxGraphModel dx="978" dy="557" grid="1" gridSize="10" guides="1" tooltips="1" connect="1" arrows="1" fold="1" page="1" pageScale="1" pageWidth="827" pageHeight="1169" math="0" shadow="0">
      <root>
        <mxCell id="0" />
        <mxCell id="1" parent="0" />
        <mxCell id="1Q1OTanEVwLeCe3aNY2j-8" value="" style="ellipse;shape=cloud;whiteSpace=wrap;html=1;" vertex="1" parent="1">
          <mxGeometry x="270" y="120" width="375" height="250" as="geometry" />
        </mxCell>
        <mxCell id="1Q1OTanEVwLeCe3aNY2j-1" value="VPC" style="sketch=0;outlineConnect=0;gradientColor=none;html=1;whiteSpace=wrap;fontSize=12;fontStyle=0;shape=mxgraph.aws4.group;grIcon=mxgraph.aws4.group_vpc;strokeColor=#B6BABF;fillColor=none;verticalAlign=top;align=left;spacingLeft=30;fontColor=#B6BABF;dashed=0;" vertex="1" parent="1">
          <mxGeometry x="410" y="185" width="120" height="120" as="geometry" />
        </mxCell>
        <mxCell id="1Q1OTanEVwLeCe3aNY2j-4" value="" style="whiteSpace=wrap;html=1;aspect=fixed;" vertex="1" parent="1">
          <mxGeometry x="80" y="200" width="120" height="120" as="geometry" />
        </mxCell>
        <mxCell id="1Q1OTanEVwLeCe3aNY2j-5" value="" style="sketch=0;pointerEvents=1;shadow=0;dashed=0;html=1;strokeColor=none;labelPosition=center;verticalLabelPosition=bottom;verticalAlign=top;outlineConnect=0;align=center;shape=mxgraph.office.concepts.home;fillColor=#CCCBCB;" vertex="1" parent="1">
          <mxGeometry x="86" y="204" width="20.4" height="20" as="geometry" />
        </mxCell>
        <mxCell id="1Q1OTanEVwLeCe3aNY2j-6" value="Home Server" style="text;html=1;align=center;verticalAlign=middle;whiteSpace=wrap;rounded=0;" vertex="1" parent="1">
          <mxGeometry x="110" y="200" width="90" height="30" as="geometry" />
        </mxCell>
        <mxCell id="1Q1OTanEVwLeCe3aNY2j-7" value="" style="image;points=[];aspect=fixed;html=1;align=center;shadow=0;dashed=0;image=img/lib/allied_telesis/computer_and_terminals/Server_Desktop.svg;" vertex="1" parent="1">
          <mxGeometry x="112.4" y="238" width="52.86" height="67" as="geometry" />
        </mxCell>
        <mxCell id="1Q1OTanEVwLeCe3aNY2j-9" value="" style="endArrow=none;dashed=1;html=1;rounded=0;exitX=1;exitY=0.5;exitDx=0;exitDy=0;" edge="1" parent="1" source="1Q1OTanEVwLeCe3aNY2j-4" target="1Q1OTanEVwLeCe3aNY2j-1">
          <mxGeometry width="50" height="50" relative="1" as="geometry">
            <mxPoint x="230" y="280" as="sourcePoint" />
            <mxPoint x="280" y="230" as="targetPoint" />
          </mxGeometry>
        </mxCell>
        <mxCell id="1Q1OTanEVwLeCe3aNY2j-12" value="" style="shape=image;verticalLabelPosition=bottom;labelBackgroundColor=default;verticalAlign=top;aspect=fixed;imageAspect=0;image=data:image/png,iVBORw0KGgoAAAANSUhEUgAAAfQAAAH0CAYAAADL1t+KAAAAAXNSR0IArs4c6QAAIABJREFUeF7svQmUJNV1Jnzfe7HkVlVdXb03DTS9sAmQBEgsEoxAC5IACYMWgxbL+LcljeyxFv8jW5Yt+Xi3bM8c2zO/PWONx3M8GltjeZGMEEKA2JcGsQtEQ3fT9N5de2VmRLzlP/e+iKys6q26u9bsGxxOdVVmRsT73sv43t2+K4APRoARYAQYAUaAEVjwCIgFPwIeACPACDACjAAjwAgAEzovAkaAEWAEGAFGoAMQYELvgEnkITACjAAjwAgwAkzovAYYAUaAEWAEGIEOQIAJvQMmkYfACDACjAAjwAgwofMaYAQYAUaAEWAEOgABJvQOmEQeAiPACDACjAAjwITOa4ARYAQYAUaAEegABJjQO2ASeQiMACPACDACjAATOq8BRoARYAQYAUagAxBgQu+ASeQhMAKMACPACDACTOi8BhgBRoARYAQYgQ5AgAm9AyaRh8AIMAKMACPACDCh8xpgBBgBRoARYAQ6AAEm9A6YRB4CI8AIMAKMACPAhM5rgBFgBBgBRoAR6AAEmNA7YBJ5CIwAI8AIMAKMABM6rwFGgBFgBBgBRqADEGBC74BJ5CEwAowAI8AIMAJM6LwGGAFGgBFgBBiBDkCACb0DJpGHwAgwAowAI8AIMKHzGmAEGAFGgBFgBDoAASb0DphEHgIjwAgwAowAI8CEzmuAEWAEGAFGgBHoAASY0DtgEnkIjAAjwAgwAowAEzqvAUaAEWAEGAFGoAMQYELvgEnkITACjAAjwAgwAkzovAYYAUaAEWAEGIEOQIAJvQMmkYfACDACjAAjwAgwofMaYAQYAUaAEWAEOgABJvQOmEQeAiPACDACjAAjwITOa4ARYAQYAUaAEegABJjQO2ASeQiMACPACDACjAATOq8BRoARYAQYAUagAxBgQu+ASeQhMAKMACPACDACTOi8BhgBRoARYAQYgQ5AgAm9AyaRh8AIMAKMACPACDCh8xpgBBgBRoARYAQ6AAEm9A6YRB4CI8AIMAKMACPAhM5rgBFgBBgBRoAR6AAEmNA7YBJ5CIwAI8AIMAKMABM6rwFGgBFgBBgBRqADEGBC74BJ5CEwAowAI8AIMAJM6LwGGAFGgBFgBBiBDkCACb0DJpGHwAgwAowAI8AIMKHzGmAEGAFGgBFgBDoAASb0DphEHgIjwAgwAowAI8CEzmuAEWAEGAFGgBHoAASY0DtgEnkIjAAjwAgwAowAEzqvAUaAEWAEGAFGoAMQYELvgEnkITACjAAjwAgwAkzovAYYAUaAEWAEGIEOQIAJvQMmkYfACDACjAAjwAgwofMaYAQYAUaAEWAEOgABJvQOmEQeAiPACDACjAAjwITOa4ARYAQYAUaAEegABJjQO2ASeQiMACPACDACjAATOq8BRoARYAQYAUagAxBgQu+ASeQhMAKMACPACDACTOi8BhgBRoARYAQYgQ5AgAm9AyaRh8AIMAKMACPACDCh8xpgBBgBRoARYAQ6AAEm9A6YRB4CI8AIMAKMACPAhM5rgBFgBBgBRoAR6AAEmNA7YBJ5CIwAI8AIMAKMABM6rwFGgBFgBBgBRqADEGBC74BJ5CEwAowAI8AIMAJM6LwGGAFGgBFgBBiBDkCACb0DJpGHwAgwAowAI8AIMKHzGmAEGAFGgBFgBDoAASb0DphEHgIjwAgwAowAI8CEzmuAEWAEGAFGgBHoAASY0DtgEnkIjAAjwAgwAowAEzqvAUaAEWAEGAFGoAMQYELvgEnkITACjAAjwAgwAkzovAYYAUaAEWAEGIEOQIAJvQMmkYfACDACjAAjwAgwofMaYAQYAUaAEWAEOgABJvQOmEQeAiPACDACjAAjwITOa4ARYAQYAUaAEegABJjQO2ASeQiMACPACDACjAATOq8BRoARYAQYAUagAxBgQu+ASeQhMAKMACPACDACTOi8BhgBRoARYAQYgQ5AgAm9AyaRh8AIMAKMACPACDCh8xpgBBgBRoARYAQ6AAEm9A6YRB4CI8AIMAKMACPAhM5rgBFgBBgBRoAR6AAEmNA7YBJ5CIwAI8AIMAKMABM6rwFGgBFgBBgBRqADEGBC74BJ5CEwAowAI8AIMAJM6LwGGAFGgBFgBBiBDkCACb0DJpGHwAgwAowAI8AIMKHzGmAEGAFGgBFgBDoAASb0DphEHgIjwAgwAowAI8CEzmuAEWAEGAFGgBHoAASY0DtgEnkIjAAjwAgwAowAEzqvAUaAEWAEGAFGoAMQYELvgEnkITACjAAjwAgwAkzovAYYAUaAEWAEGIEOQIAJvQMmkYfACDACjAAjwAgwofMaYAQYAUaAEWAEOgABJvQOmEQeAiPACDACjAAjwITOa4ARYAQYAUaAEegABJjQO2ASeQiMACPACDACjAATOq8BRoARYAQYAUagAxBgQu+ASeQhMAKMACPACDACTOi8BhgBRoARYAQYgQ5AgAm9AyaRh8AIMAKMACPACDCh8xpgBBgBRoARYAQ6AAEm9A6YRB4CI8AIMAKMACPAhM5rgBFgBBgBRoAR6AAEmNA7YBJ5CIwAI8AIMAKMABM6rwFGgBFgBBgBRqADEGBC74BJ5CEwAowAI8AIMAJM6LwGGAFGgBFgBBiBDkCACb0DJpGHwAgwAowAI8AIMKHzGmAEGAFGgBFgBDoAASb0DphEHgIjwAgwAowAI8CEzmuAEWAEGAFGgBHoAASY0DtgEnkIjAAjwAgwAowAEzqvAUaAEWAEGAFGoAMQYELvgEnkITACjAAjwAgwAkzovAYYAUaAEWAEGIEOQIAJvQMmkYfACDACjAAjwAgwofMaYAQYgY5GwDlXPOcEwPMB9EclGB6oAIyVwNYjUCMK0jYIIoAJv3c0OlMYnLMOoADlOH7S5ycd+LcocGCEgSh0SVoR8Yartwoh7BTuiN9yGASY0HlpMAKMQEcgkBM3PtMEbN0aQtisNvVwdynLKmDqZV0f6mmMDp/RHBo6Y3RsaINIhl6X7t9ymsuG4ywzYK0GKQMQwgHuAYrfAZBjJPDPQ+EAQNslh/jkh7Cgclq2wuMmkdJzrrYgwYEELUJXlyVXD2tSLV2766rLbz1DbNiQdMRinKNBMKHPEfB8WUaAETgxBFoEvnlzCGVdg+ZAL+jRRZAN9mb7dqytD+68eHTvjjdmo/0b0uHBmk4aEEkBlSgWoQpASoAQrUSwBkCanLBFG3GLDiVyd5hxHW68xfsn/wQnLJKzsxB6YgcLyhmIjaXfEqEEmuFlfJdwkDnjmhpspWep2T/UaASl3tGBoKt8xttv+mD53GvvO7EVwZ9mQuc1wAgwAgsCgZzAJcDjEgZVFfpHl8FY0gfN/lNH+vdevH/XK28d3PnKeXp0b6kqEqhFViyuhqBMkkljdICWoghDAKGcscJYACMCcIIfg8e3ABwgbTsQ4CCgfyO1E70772XXMiCSLzlNPzGyYWUIqRagKouz/XWpVl54xW+X3vurXxHoGuHjhBDglXxC8PGHGQFGYKYRcM4pcqGLA72Q7DwFBnau0vu2XVTfv/sdu7ZtfpNt1J0EI3pqJdFdik0orHYmDZxJlE4TkFKSKx2kAOMUYEQXXb54EAHB4XnE5cQ002NcqOf3djjiiXEOaLnajRDghAQpInA2hdAl5HLPIAYhI8hMClncMzYQLE02XvfR88WZ1+1YqBjMp/tmQp9Ps8H3wggwAp4gkMRhcwDbhhZDMrCusf+1U5r7tr51aPtPrhvd88rqUjYmekrCLV1Uy0zaAJNmEVrwEmnFeroWOamgKxj/kjkAjfSNTz0ZgFIKpMl8fPcwBxP6kRekRbwFRcTxBwQWAOPmiQzBQgABKCJ0CQk4ie+NAD0jUanidtatXnrxe77S9e4z/kCIDxpe+ieOABP6iWPIZ2AEGIFpQMC71J8PYVejGwZ3roehrasa255/2+DOLTeP7duzKBZC1CplFwRBZoUNlchkc3gfVOMAylGZEtlMZsBZQdYiJmohqdM/MdaLXI/kjv/OLW9n1RHvvPj8NAyvA09B2yayzwVtlSwEBsMYEpoqpnBGYH1SnBYZ5SzkhO/qLjJuxfonlr/roz8l1lzN1vk0rQ4m9GkCkk/DCDACx4cAWeO7dsWgt6xMh3af39z5ygWDW3500+irPz67L8pEl3JZSSorHERORtLKADKkEJNCFBgQToPJLOjMgFIxhEEMYBykaQphGINzBhxYsMJSBjuFaimT3YEDNTFDe9IQmNCPNqeSLHMQGpTDhDgHBhQkKqS4ujMWVBhB0+FfHSjTABlXzdZRoc99/8/dBG/8xG1cqnY0jKf+OhP61LHidzICjMA0IuCck7D/xSqM7Vk/tvXp1+9/9Zm31Xf+5GY50i96QiV6y3GapUkUKcyPNpBlGZFvEARkatPvISZeCxACXbsC8JQCVF5+lv/d+ZI0cAaEtEQsUnmXvNGch3UiU9oiEIyQ0PbIF/RTkhxISJ0BCGNougCkc1C2Q7YR1CBbfdG9K9770feJvkuGT+T6/NmJCDCh84pgBBiBWUXAORdA/+YK9O9aP7rtiUsGtzx94+CuV95ahbFgSQmaMegAMhOis9YnsQkw+ZOKisytgVD4enENDrTz9dFSBeR21wZJ2hM/kj4mxeF7Kb6O1npusWPsHN3AfBwnAnm9OcbMnQt9ljtkoECT6x1/T6WAVIRgoIwvulil2e403rv+ps9/FM56/71snR8n9of5GBP69OLJZ2MEGIHDIEAW+WvPL4LBVy5KXn3qrObOH1839Orzb+kOXRyHpVQJGTmTCWM0CCwLlxKsRbIOAMgCLNiXUtt83NZ7z/MaaB+/9ZnXRe76+CPOF0XJ8SQ4EjoxLcETnrhjRyBAAR6BCYclmgMBCUQuhcj4HLemUpCABCVLSOxmIDNy7WXv/rI86x1/ItZc1jj2K/InjoQAEzqvD0aAEZhRBChGPvBKDUb3b2i89PjV25+89+dc/9bTlpVMULVjaQgmEiIWaI37amWqJyO3uCZCl5MIHRPcXB6z9YSOn2pPeivKqQoFM9oKoDveIaGPP/asNJQkx8fxIYBeD4vzJmKaN3S5By6D2HrBN8x2z5zEigI3qmpZf+mULWe96yPXw1nveYnrzo8Pcyb06ceNz8gIMAJTQMDte6ELmjvOti8/ccnu5x95b7L3tcu6lKxEKtQ2TcNqJIWwCTiDzvOMzoixbYyDo/u8IOkWYdM7kJ6R5AXIQnKUSBmZ3YKVuC3wsXHMvEbC95Y8Evr4ZzDGqzEnbgrj4LccHgG00DEzwXs/8F8ZBFh3jkIyLoQgjEFDavZAb9p9yce+0Lfmyr9mideZWVFsoc8MrnxWRuCkRsC55yIYgBVDLzx4zcCLD92QvPr0pb3Q7O6NA+OMVNpFIgyrkKUJEbm0KShhQBVF4VZSvTImvHlrGy3wcUsayRkTr9AV37LGBbp58T02d6OjKKkvrCJyJ1IXROx4YFTd4L7gpJ6pExu812ovMBSgLNrsGC7xFrrOBNR6Fptdw/3OrHr9Xae8/9c+A0vP3szW+YnhfrhPM6HPDK58VkbgpEXA7Xpiabr9matGtjx9xeBLj17XA83VJTBGgVYClERBF0xWG0tSiOIKZahTSROWlIEhKw9LyrDYDAQStrfG0dRWDuPn+B5NSmQGQqp39sc44RfkX8TNc0r3P3KX+zgVscv9eBYrJcNNqENHbEM/EyL3tlgFJqpmu000tOGdH7sVLvr47UKI9t52x3Np/sxhEGBC56XBCDAC04KAc1tK8OqOdQMvPHzd8IsP3Wp3b167oqx0JHQoRSCNs5AYS0QdKgciUJBR+roCaX0am8PyMnSTI7krSVnuue6bd51TlTMmw2XEy1qgIll7qvrh/p1zecte93YlicZRljwfx4pAO6EHmPrmMMUQY+kYKsHNmIUoiLPtQzpYfOE1/633sht/Xax8475jvQ6/f+oIMKFPHSt+JyPACBwGATfyxFLzk+feue+p+69rbH/uii7b7FtSi6VLE5VkqciMAxkoEAE+csZd4oVDXFgUeiEhUX+giCvWiVN2+7j2un99vB0nisXQq61EN7Tm8xg7oHvdf7roBOZbeKLIjL+MtIV1z1N7rAj4xiyUFgcRxcyBStQwFEKhDYlIm3SotOrl1dd/9mdh/dsfE4LiInzMEAJM6DMELJ+WETgZEHDu7gC229OGNj/1U/uff+wT0YFtG/vCzJWdkVmjLiGIQQYhWCkgs74GnCxw6agkLaAYrI9i49+oVhxT2bAUDUuiWta3L0PzQqM+Fk5sTd7bcUL38fGC1Oms/hM5kRduebIg82tN6OV9MkzaNI2RkuEEJhkaKBufBNdQMVgRgHL4mkz31JvBuitu/HV408f+q+hdOzhNl+bTHAYBJnReGowAI3BcCFAG+47HL2r8+MEbd2994b2BSVZ1Y1KzSSQ2PQmxu5kxPgbeom1/qZaF3Bb3Pugmigz2/AXfntN/1me3F5Z+2ycnfWa873f+nsklage9/7igOCk/RPXnRkI5UiAbAxAoAVlUgRTL1CSY/qbQZvnGTae+66OfhrXXPMsiMjO/TJjQZx5jvgIj0HEIuF0vLW1u/uF1zWfvvEUMv/bGrJlUw0DKUAplTQbOeu1uFG1tP4q2pQXJc/x64S4NiqGLEtisCd2xg7Q+ClAqA/ZWE0Hc3JWV9ClXfvjTpdOv/b9izRoWkZmFqWZCnwWQ+RKMQKcgQGpv2x9f23jh7psOvPjgx8y+nWdVlYVQBUJgINtoInHslElkTS728YMJvVNWgm+TKrABi3MgrYYoxAY5TWy+ovclwqjTLvzu8nf/P58Xyy9+pXNGPb9HwoQ+v+eH744RmDcIOBTs3vHYuXuf/MHHRp+96/2VdGBNJYyVQr0W58BmKRF4oCRg7hvJtjKhz5v5m/4b8e1TZRDAyFgdFtVKEOgxGLFSH4hP2Xb6O275HLzhLXcIsbY5/dfmMx4KASZ0XheMACNwVATc9u1lSDdfOPjYt39maPOj743NSF8tDKSAQCFxk5XWZplTa1KrqTEKW+hHhXfBvkHKAFJtQAQhOJNCV5RlO4edql7y4d/vedP7/rNYccHeBTu4BXjjTOgLcNL4lhmB2UTA9b/ck2579p0Hnr3nE2brw2+q6eHeSinCdqUyNZaqubHEDC1z7IRmnfY14xK7cHEMfTbnaravJYWANDMQVSqgdQZZfcTopet/tOTaz/8HWHfVI1ymNrszwoQ+u3jz1RiBBYWA2/Z0b7bnxfcPPXnbv29uf/a8LqXDrijE7HWRGUO15Zh1TvrrSOYWa8l9ORqWoelJmi0cQ19Q03/0m3Uub01rwYSx7k8jufqy9/86vOmWvxLdpxw4+gn4HdOJABP6dKLJ52IEOggBN7R9cfLcfR/Ytem2Xyrtef7M5RVQxkkw2lKvcW0yMGBA5G51JHN0u6O0K1gNWmuQQcQu9w5aEwcNxXnVP3Da7kuki9Zf8YO+i6//VTj7XU9ymdrsTzwT+uxjzldkBOY9Am5wW2/9xz/80J77/uFzi7M9GyqmQW70TKK0JwqH+J7kXqlt6tKpbKHP+6k/5A2iBwaPySEU3MChWFAUKL0962ouvurnf7nrjLd/Q6xaVV+YI13Yd82EvrDnj++eEZh2BJDMh579wQeHnr77C92DL6yv6WFSX3OgqBFKQcp4YXSvM6FP+xQsiBOSNK9OIa7W9IGRBKL1l/5j79s//VVY+boXuJva3EwhE/rc4N5xV3XOBQDPj6c0b44E9PSEoIYwmHr0deasA5NaWBplAGmeSXWOFUJgtw4+ZgkBTIAbefHBD/Q/8s9fLA9vXdctm1RPngnfRQs1u1F1NRUxaXYHecz8aLfXvgk42nv59fmPQMtiBwMNWbZD8fKn1l7501+GCz98pxDCC7vzMesIHP1BO+u3xBecCwSceymGXVUF8VgAoQ6hoQOQiYQkVETIIhHQlAJcGoHOKuB0CM5GevRAVdg0zjLXY62uoJwIxlWdFpF16TKTQZksORLfzg/Mm5Ko1o2GH2VCOyGElIEaFVLtkoHA34WFYDSOwwMgIgmh1FJVRsI4GoMwqEMQZxDHDhrW0RVsbMEZCyWZQSJSWKJSgPUZx/Gmvprc7t3VdPt91+1+/LYvBzufPGdVFaCZpZTF7luU6lYTjiR3vQcWQE2hWxkT+tTnYT6+s3C1U/Jj7n5HYRkVRcnWYatWvvn9v9d94bv+jLupze3sMaHPLf4zfnXnnILNmwPoGypBmsTQNAqiJAQUYnT1COqDSyEb7THN5gqdJN0mTfpMs74qq4+dbrJmpTE0GEhjQKAmt02E0FqCswqslRasjOM4ME5LY1wohFPY2xpbX2LXBudMrFTo22X546D1ZjOdM73FvhpagGj6LlvE91oGYYp8j6XO1kHmLN6J1ADOWlBQ664ABCFEpdiE5epQVFm0PSx3bZdx104Iywdg8dJhiMIDILuHISxriAIDmU0hKDdhaSMR4iLfuPkkP2hD9+Krl+/9wde/Ync9c1lfNVLapGSJo0sdLXPsVW4ECrriROb7MeyGdhx66N5VP95F7SSHf94P/1CEnkEAjbBi+sMVj5x1/ad+HdZdeR971OZ2KpnQ5xb/E766c5tC2FeOIZUxRDaEVAeQ1QPQjSqkyYqxge0rXNrss43Bddno8JmNsaEl9bFhqZsNsMmYLIcQCZuFzplICRlE0oWhECVpTdnZVIUCrLTaYEmStJjjjPaaVUTaIIWVaEk7AQ6teMxyDlo7eHoIFHXIbQZ6+6BDpSjRBltn+qN40HvJUI1lznSQN99ibychFLriUclEGDCYYyudkGhFau2ChhZBU4soyUSQjWVW66CUClXRIq65UrUrqfR0b691LXoprPS+Ully2g4IKztAlkeI7KPMQCDqsCiqC3EutvLq+IPkXLc+tHHfA//4H/Xzd35oaViPg3JNDjUNuLBK449tAwRo0CKizmWYFIekjnF1JvTOXSK4ufbfTyxPG7fO8fe6LJn+YPHQiouv+f2ui97xddF9NpepzfFSYEKf4wmYyuXpgfvaazHYgRK4QeyGEIFJAnD1JdD/2gYYHT5jbHBww/BA/8bm6GhZp01hs1QB6DiWMlTWhoFwZeFsOQBsguUyAGu8LW2RKRVa8vgbCYIUiU7OAH6fse0x6XIjYXt+pXWDX3BfdUytLlHssyDeVjasahnlExXD/LiLz2J7y+KBgecf76IlW2m1vq2m3yT47tf4TicVbS3QisdbcFZQXbR1VB9tpQqNwzi8k9YKKa2zylpnnBMNI1xTZ1kCUiUyruiwVHVRd19/19Llj8V9K5+FrqWboatvF4RlA6q7CaZvpNOydxE32PP06UMP/P2vDTz9/ZuWitFaNRYqQYM8rEDTYX9rP4sSDAQuBdUm52oQ67yb2pHW8uQmLGyhT+WbP/fvKQi9+L4X7nZjjB6SNXCnXvj3q6784O/BqZc/z4lw82C+5v4W+A4KBMg9vuvxGGy1DJCWwaQR1Pt7zcjedfX+A+ubQ/vXZ2ODZzdG+nuTsVEB2VBQsaOlkjKlIAjiQCmKJguU6rIGBbZRuytArizoFNspoM8caRq/nJnFF6WQUno9bqe9jKeUSOZtZSq5BY32eL5jR8vMi4rg1uDQZS20HWjR/MS5pl7XGJZvqYlZuqbvXY0jwf7Z3kBX+fkLa9ATOm49/I6D+mgjtRd9sv1PJyxZF8T51HLbh+fzTYl10qUa3YRWBELLIEqdsokLRxsuaNQhbCaynAXdS1xX36oXu5etvq978cqngkW92yGOGhDGKWSrhhYyybuBLYt23PN3n6k/890vLBcjpa7ARSZLhXEROBWBdkGe2a6IyEPXzAkdO20BeEI/+neYCf3oGM35O4QFQY8G7EfvkyAVfhed8V8r3NgJRd+5xDmzX/bsP+WKj36pdPmVf8d67XM+e7mJND/u46S7C7K6979YhZHXKgBJCRoDVRgdWwsj/eeP7t99/uC+XecmQ/1VZTOlnImlcHEoIBJClJSQRgiRSTBS2iQSYNrj1ERe+TOWfkj0krcdZB3lcc/DeMLzd0+9vvjwE3goy3z83QeTwfg1sff10Q+/qfDvLTwE7T+PeAaXW4pop4KXRSHKp1prLWQCMtBOKJk5CUma1dPMNGUYpV21bhd2L9myeM3GO6Fn5SOwdMkOiHrHoBqNQu+FIwshGc/t3FmBF/73R/Y/eefv2aE9ixZVAjBZIk2WQhhVSPWNrG+MqKDym0NXu99GEdq44Tv6BPE75jECmLjimQDnFDvlZbT2M+imZ4RyoxApB5nFEAt2VoshEWE24Az0vu4t/2vR5T/zu2L5eS/P4yGeVLc2hb31SYXHjAzWxyif7AZhygCmBI39tcaBfWcnw3svG9nx8htcY2BtMjoobNKIQkijSgBxWdogEsYIo3G/jFa2BKHIFrUURw7Q/ARrp2ojzcjQOv2kzhjjUPlMKYUeDGGMwSS9TEoZuqAEQzqujxjV1CrW8aKlzUWrzrija9XpD0Z9q56D2uJ+gK46rNw4MN80rZ17LoIfb3nHntv/y1/GQ9tWh2HowjAUzWaTlN4iFUCSJF71bcJmcOKUM6Ev3K8AhVFyQvcCQSgW5BMfNVSJ2EsiAekSfM6ADGIwJnT7M3Dhaesf6nvDVb8ZvOHWe+bb2l64M3Lid86EfuIYHnQGSlR7tVGD+v4egKwLhvZsHN2/8y0De3ZenAzuX2eboyLIMtTEjEu1RYFxFnO3UwVZFAsbh04LBZmTmHiE/aXxCph05mPVSOg+GYm+hHnMeQbGwaccR6BICEL3fX4Iiw58FzqMwQulMF0/qGeJbWQ6gaiSqeqikb5TN95TWXrad2HJqS9C1DcEPcsHxdKzRuYSW4qbv3LnmoH7v/XbI5sfuWVRkGG1AuqzQ5qmJOsaByFkWdYKpUy+3+LBwYQ+lzN5Ytf2hO5Sy6gHAAAgAElEQVTPgd4WNA3QbiiiVuhkp3Ca0RCiMmCgoG4h3WNK4pTLrv9a6eJr/lD0vmHwxO6CPz2dCDChTwOabt8LXWCzCjSb1cbeV1aaob0XyMb+N+955fn3Du7eJiqBDSolFcYKC6yMVc7o2JnIqSis25IzIgQJ2mHIV9kMhMuEQBeXM+BtciL03P2JXzh0gaLlVCSpTYdrfBqA6MBTYC5B0R60PdN3nOD9PisU1klhhbMpZEZbJyABVRJjVsmhVCVJ2KOrK9bv6Tl1w7eqS0+7K+hZ+iqUKgOwuj4kxNtmVTwH1+voPX/9xQPP3PPZxWUhA6fjVl5ELu+JD/pDdUsrppgJfeEv9oMIHRTWidJzJXBeG8ZYfDYJqAoHTaftEAZelm28c9VlH/0qnHctdlPjh888WgpM6NMwGQOP/OMNO5+657flyPZTgsaAdM0R1VUuKWkt9FaricvSSGcZPTQpsVwZQMI2zuIvRMv4APU54/gXNPq82CY2uMADd8penAMJ3f/ELx7GNY9FenMahntSnYK6h+XlOkXin/eUoI45gMBuY9aC0RqUBYhCBVEQOjCWLFwZhJAYZ4xUjUwGcjTNgoZ2WffivsHeVac/UDr9vO9Ate9pUIv3QfnMAbF2bXMmAUbvUfroszftvPd/fb0r2SvLKgydQQeRIcs8DL1lbtKMfuejcxHwhO7zTXAtaxGChhhAGAhhBKRzoE0EkYoghgwG0jQbrC0dWHPptX8SnHP9fxV9G1ATmI95hAAT+jRMRvrMHRdtf/D/fsvsembFqrLtD21zUZa6uFrpcs2RUaRrJAX0X4FVqIeNDI111hYwCxtfwnSs9ppPa8ezzYnAW7Eun6RUHL6MjDfJ0zCNhzwFdRCjjP/xLP4i8x6jIKikVipVKNZsMg0u873AsZgOhevQlW2tpqQ73KRhOqK2WZJaC1rG0f660rK2xNWWn/7M4lPP+tt41VkPwLIVe6C5dECsWYPyP9N2kKv9tXvXv3Db1/9LvPvpt6+ugmuOpSIIIr9BaRtrsS4nN+OYtpvhE80LBNo9LegpLAg9gBFU7gdnIghkCFJr3S9jl6294B9XX/Xhr4jVV704LwbANzEBASb0aVoQ2aPfuHrfj77338oD20+vulHQjUQozAwWgh72EkPgzkCqM9Coeir93wLUWzNZy62LZVwohyrR9SUF/b0gc4M2+iRVLi/wwsdMIVC4nQvCw+u0W+zoOcF5QQvXEyLQfGM/cLJ6sIWoxIYmAMb4kj8VRA7Pa4QUGtXvQKap1sFo6gIjI1dduubJVWe+/m/l6rMegKjvNViX9k+HWx6t87E7b/8P2x6+7Q/6ZGq7KG3ZQCi9lwEtc7w/tMxxDO1jnil8+bzzBwFUXrQk8YteqQyUywClfdGx2DTK6aUbXwwued9vdV/0kW+yItz8mbf2O2FCn8Z5cQ/+j2u2P/Rv/1oe2xt2qxSExRIQT8qYJSqkw7ozsvg0BPQ3VNzC5LZWfFYGPkHFWVRJaxFDyyJv4+920YdpHAafqg2Bdgt1slJWUa+PZI5uSxl6lbwWuVPNrve8AOU8FK76opQP84ixUA4foFTLnxmAtGFkOJzJcMSEsOqsN363e9WZ/yNave456OvaAYvfPHo8cUu0zutPfvM9r97x199eCgNQkaFAtUCFOgDaJ78VJF4Mvwg38ILoZATG1yKOEkmd1ikFA1Mog4XEinTAdZvKOVf8f91X/dxX2NU+f9cDE/o0zg0+NLMH//ojuzbd/pfBgZfLy6oS6okhi1vFESTNBoTOQBwqqCcOSnEMoLEsxN+Er+v1lh19qbxcSn54t3oRay/+yk0vpnECj/FUVOqDmzE/M0A1vU7lXpQiz8E/Jou+4figxHJDPDBnQtFmAFAVn0R1C+IXEtX8oDlab0aJVVHQvfTVvjPO/af4tAvuguVrngO7biecfno6VXJ3L2/qOfDkt393eNN3PnXaIiWaGr1CQPkafJy8CKDOAHpotE5pPfokUFycCqTNIJKJG7IRDPee/cCpV978FTj//XexItz8XS9M6NM8N879gzIP7btlz6bv/QX0v1rtrsQCrIN6swGlckyEnjTHoFQqe6ucct78LnkimU+8Mfqy5Ylz/hM2j5x7dy4fc4AA6gBQLoSnZwqHYBdZJGb62X4g+ZsWsZOMLoq0UA4Fiar6KgYM04D33KAzPwADEMXNpgnF3roNh1W3qK7a+MPlGy78+8rKMzZBecXLcOp5o1hEfLgHLcXOH/2b9734vf/9rdPDUSvrg8rFVWiajB7mnIMxB2tnnlxSO0teQJJUos6H2CnRgVKx9zbZenpAdSfhBdf/9yWX3MTW+TyZt8PdBhP6DEwQxiqzBx6+eecTd/1x0P9q37JqCMnYKFlzURRAppsQSXSzo+Z4mfpKk5WW2+MT1ds8XTOhz8BEneApycKmLGE/R15hDtMUCy/LuEpeIX3amsdcpZbmPffMFPM8nk3vM+wbmQZQMZSq3dgmLh0caYRNIySUunauO//Sf3CVZQ+o0zdugrWn7j5Uy1i3+XvLhh/4uz8d3vzYT6+olIVONFhRAkBhYHIEFJuSwwNyOHnXqan5nSDQ/PEZQ4DKFcFAqHy4iFobOAkh9ruX0g1Z7ZKVZ9625O2f/lJ8xhVPz9iN8ImnBQEm9GmB8eCTYDvK7IG7PrrjwX/+o8rY7kWLsS2KSSAxFiIsdcrqeSwdo1TjalyezH2DyoIoChIoHvj4Ex+k7UQwQ8Pg0x4BgaLsB+fHS8ciqRfCqBM/iNROjW98H5rW7JqDlHF9GVEuRQsCE+ryuDzG5vGhG1DSpNRGRmLXWCobsupWbnj9/1l29sX/CpU1z0Pvoldg+fkJJi45d3fQuP2+X9r1yL98bU3VNcdGG+U4LoPLJMXMLRH60askmNA79KtAapOWCB3Xl7YGoiAGaZVruNAOxtUDfRdf86fVqz7/NU6Em/9rgAl9BufIa2X//Sc3P/itLy0yg4v7qjGM1lEvWUEpFyzR4OuZJx4TtcjbraDJb2V3+wxO4FFOfbgNVTFH7Q1Jiu5iXgzo4Nke/8s4maOlj5nnQRT5hDXjH75YCIHSrFYKGLXWyajc3H9gOBrJrFi57qz7l2x4wzfCpec/D6v7noQDu87Ydsc3vwF7tp65uIztZlMAl0JFWDBpAkKV/AZiCmM91FvYQp+79TcdVzZYo+EcREEAWWrIyAjjCqSZs8NQTcTp5/3riitv+LJYc+VL03E9PsfMIsCEPrP4gtt7dw2eevBTLz9y25dK6VDPomoXQKohxOiozQCwbI3iqW03cijxpbxczRvwecydfjm6dTXDQzxpT09tWttahxYVhP5Llc9pkQB3GMb09rzLu8aRTj99ukh2jKIImo0GPXQrcUTZ8EnSAK0t9tEDiAIQSkJoLKgwaoxqF+84kEDUu2H/xgve9PtjO15avn/nls/1xUo63VAyMmCyUQhsHQJKwotIs5sJ/SRcxmid55UXcRCT7K8SAbgwckOpgEbtlGdPveKnfktd9OFvTTX58iREcV4NmQl9FqbDDT/S1/+Df/vyvucf+PiyoLmoZBJyb6F4B9YtY2zdk8HhyHk8Y9o/6NunjYVlZmEKp36J/CHZagGbf7KlH9BKlhPY3RWkSFuuekyBo7by5J7HnHcLuplAtRRTySM2S8F+71G5AlKhAp2Ghs2ooUY31rVn6DKtQKXW18gSq7Zv36GENqK7uystV8ISCthZbH8aWMrjQNEbrJMrkjL9RuLQB7vcp74EFsw7cbOJJbQWY+gRmNRALBTUXWAGVG2sevalf7fkbe//VbH4oqEFM6aT/EaZ0GdpAbh9m1b2P3jb/7vv6R/87GLZ7C4rB9JkXimO7LLx5KoJD0+Xx9cdPuyLOtFCw50t9FmavsNeZnJZoc+BQK/LpI+QVwUlfts3ZJgZl1EZG1rJWCo0mdBjhUSdYPakl2LFTlgOINOWFAdVCbVhMohQwMYKULYbJJ4rzUAn6djQwEiggihKIBPlWgnKsQIROAjKJUiyJln3rW1kqwTv4OEyoc/1SjvE9fP+5X4jhom1OJf5wiMLYdxL1GqT2jpNnvchBXl7lAxBGAtlpdywi93Q4rWPnva2D/4GnH39D9g6n4dzf5hbYkKfpbmi0qHdD5+2/f5/+fLwi4//1ApZX1SFDCxqgKM6F/YhFhnKhtFDVmCjBG1AydhbUA5VnPIvrtAQuAZFPjGhjmvRZ2kSp3qZI4RM/CnGxTx8ffr439q1B4oe7wfnTfjP42eN8KIwqOgljYLIVkFYBclIA+pDDVD4oLe4TjBXw4JC93wsIa6UQZUD0IEGC14hDjsL5Po32EST/oZHu4a9yJm9rfvchPufqnDheCUHh4ymuqwmv08AljZiUiPWKZQxV52InbAVWFdu8h72SOye8L0XsCihBEixXBJXiYgATOoi14Sxcl9/dtY7//uyyz/8uywic7yzMzefY0KfRdypL/qO+9fvf/j2Lxx49oGblqmstxpir5YM0rROD9woDsE6LyUqpQJnUW0MSXu8rhllGUOX5rFXJvRZnMJpvxTOuW9XOTFVbrLE76EuTJuBwIIxGpSREEEJAhOBbmhIRzRk9QwCh116vUIdETR6hgIBKlIgIgGiIkBESPToHbCQWSR4n03vZK5y13ZxvK9D67v7+2dCn/YlctgTIqH7rmgStEBCj3NPDxI2EjrKt/pw3jih01YQQGTk4UldiLkXoAw1gnIuVKax+LS7ll9962fFhvc8P3uj4StNBwJM6NOB4jGcg0h9y+0bBh6/9/MHXnjspiW2v7ccWmjYiDKYa6EBYTKyzmXeNMOIgDoh4RHbBL++eSJTseM+hhvgt84rBCZb6MXNTSV7HI1lGTifCW8DiEUMkCloDDYhG9Xk3lfY/tIJ1KsBgxtF0ETcSNZOCQjK6LZXEMQRBAG6bI3/P7fWJ5N3e5OaqQB5sKt34qcK1bypnIvfMxEBH6pDCx2zKJDM8809emJcBkj4xOYOezhGLS8fueLRIwgAiZVQK0cAwwNOVHrcdtG3d+lF7/qzrqvf8IfT0T+A52x2EWBCn128C2tJwrZ7z9zz4G1fqP/khzf1BEm3DLso+qXSEQhM5ruvoVYYPoiJ0L2iV0xJUBasi/J4KyfFzcEUTtslT4TQMfGOHNZYRwwRKBtAVrdE6C7FvgExYKsAhbK0uQMASR3V7Yi0lQUjdW6xBxCXI8CsevS+IpEbhwI03rIvrPaDXe1HhoIJfdqWysEnymPoXvsAKxX841w5gwE7crnjgb8R4QvfJwLLKek1ypmQEOF56gNW15aP7Ft9+bdPe8eHf0OsePOWGbxzPvUMIcCEPkPAHu20zjkF2+67YN/9/+c/Nnc+/64gTXq6QkxmSiG0KcTSQmY0pAF+ETGv3bflxC8vPiSx9zYdR0hkOto98OvzGIE8tj45wnxQDbsBylAOXACmaaE5gta5AWkktb0sCJ2WSm6lO1QpJNlaC8blcrTSQRApynwPygEl4KEVj/WUSObaeXLAz7XH1Mc3JJOx9Hc62dMwmeDZQj/xNYilk0jm2CcAyRplgwNn6N/4GhoDmYxb8sL498Ah4aPEqwCbNqyCzPaXVj239Lpf/UJ4zjV3nvhd8RnmAgEm9LlAPb+mc89FsPmVC3c+/J1fqW997trFyoUxlpCYDAJpKI6eBpjogolJGDNHywljoiL/whZqcXM4CL70zCAwFUJ3EuXhIQ7K2AUVmiMJNIYbABmuj6DlbvfrJpenzXcEBal7ksZHu2mRe1CSUC6Xidip1h3d80j+mFqXW+u0QUCp20MlAHoqZ0KfmZXRdlaf1Y45GIXCpHSa+kUEFgnbJ9GmUkEiQ/L0+UoLC6H1vQKs1U7FJTuQNAfijW/9Zu87P/dFToSb8YmbsQswoc8YtFM7MUrEJpsevXrg+Xu/DLs3v7GWDEUxujqpmA2tKv8wLSw1b6GjW82XpPjdOR8LFYGWxZoT42SL9UgWOn42sN7VrlMD9ZExyBoGlFUQuBBjNRBgqCZPiKPgDIZyKOGt6N6nAKXnKLpuM9BOgwschGEIKsaa9xhUKAFCb60joaO1TufIrfypYD+e5DcxeY4t9Kmgd7j3jFe/WJpPQ/k1IZY4Wp8MZ7DMUQaQSAzfeexDayA2mGOBegTW2q4laX9t+eNrrvzAF8W5H7z/RO6IPzu3CDChzy3+3uo+8FK3efm+d7/22A8+W+7fenEVmhKr3EIlKEEOY+fYi4PiX0j1bY09CtW4eTAMvoXjQOBECB2JPHAx2MRBUm9CWtfUKYusc6cAS8wkFjfm1jlWT6DbnagcNxBo4bfvGJQAF2DBGpK7JnKvdlUoaS4qhWStF0lztG7pXEUHuSMPngn9OBbHUT/iNQ1IlUIY2mAhoVMZLHZtdsLn30gJqRSUj4PxdST7MrbtdcLpoGR2Q9eunstv+Iues6/8c7HigrGjXpbfMG8RYEKfJ1Pj+l/uga0PX7/tvn/5fDj82gW9JQHZyDDUSjFlMSPBC0qUQ7lYQbtug0YTte2cJ4Pg2zhmBJDQqVZhkoXeSpHAGDbqtyP5oopcUd5GrVcVxLIG6VATxkbqvu2lyIncehEbkRd8t5aIwJj4+IHWfHF4i9uR9U4udmkgNSnF1pHQo2oJghilZjEPT5NF7/VyxsvbcBNA+wWB61W0lbhNdMEXGxm20I95yUz4AOJIglNU/uhrzBV68KzPtdG4ugIFmfMbtFIgIMQyxyQFp2I3KLob9WXn/HDNT33qF8Xyi14+sbvhT881Akzocz0Dbdd3g0/3Zi/+6Mbtj33vs3bPi+ec2hODHq1DhN04vK0FQhpITAYNtOAxIxnlY5nQ59EsHtuttFvoNI2TY+f5777XeuGu9j/REg/SEBojCTTHmmR6BxgntQKElaBwA5Czdzuh42ep/Q9uEnFD4dD74984mdS10L4eXQG53oM4hDAOfB27AshM2nLjFwuRyCX3CoyjwYR+bCtjau9G8ibBqUKXnTQNirpzQVLBNB8SdS0shJj3kDShFEYug4rZHS7Z1ffm679aueIX/id3U5sa5vP5XUzo82x23PBrfQM/vusDQ49++zOV4R3nlm0KNXyWJwlpLotyDTLhSIsbxUCKlpzzbBh8O1NE4FCE3m5BIzGipauKFrvoRidvjQDlQkgHMzB1S401Cisez1kQOrVrbzvQAi+OgtDbXy8Incgd47ISY+aaEuaQ2JHU0VqPKyUISyFoSH1de640R+eSlGJ3SAQK1ztb6FNcIEd5GxJ6ITXcauFLIlSYOyHzPhFeSAar1aUQKAkMlVLF7tOVIbf+in9afvUtvyaWn7dneu6IzzKXCDChzyX6h7k2kjr8+HsfeOWB7/xibWzv2TXXgMhaYTCJRZVAhgEIl4IxyfiDfh6Og2/p6AhMJrZDZY1jhzXywuRkLnNyF1pCfW8TMAqDbnlyc5Ob3Qe40UKfQOiT3O2ee4tmMOi6HWf/gviR1DFOTlKw5I73mvJkpYcSSl0lqmUvst9bxI4JdHkSXTsKTOhHXxPH8o72trwkMENJsvi/F6LC15XE8Az2A8A6BQVORa6eCT1UWrZ13Xt+4efgvOvvExjP42PBI8CEPk+n0A2/uCR56t4P7X/8O58J+refWYlCLCUSjUYDjE6hjJ5Vi0pQ4zHQeToUvq0jIHA0QkcyJysd3egOs9YDQEI3maa687Q/Iw13engjodvxJLiJMey2myjkZu14VXtB7O23iqSOGwWSi5We8FuWN0UAHFR6y16YBqVj0TJHSVEsb8vr1SdvUCYnx3H73xP8euSbMKx6wU0cEjpmtiOpUxKt1RAIAwqz2qWCpgudKXW5fQ3Vv+z8K/62+9IbfoMT4U5wDubRx5nQ59FkTL4Vt/upZdmz3//pPc/d++lsYO+6vkooVJZIkzQgVgG1XjXguGxtHs/h0W6tSGoa79A20UeOhE4NUcj7jVY3emcA0kYK6VgKro4d1rzO/2RCP+S1W7Hy8VdxE1Ack4kd1xeG4otSt/Y6dEyaQ1U5zIIvlUqgSrIlRIOkjvRP4jRtBxP60VbEsb3ue+VgXbmPnWNpGlXEADZzshAIDZAlEGMpW1yDIR24EdWdNrtWPLP+vR/+WbHuvc8c2xX53fMZASb0+Tw76Dnd88zyoWe//4n+p+76+dLIjjW90sgIN94GW2miClSR3TrPB8K3dxgE2juv+YfzeCcy72bH+Dla574MTXkRmbEmJMNNiHRMAjLtR2GZF/F3z/ZF0tuRJ6Ig98nETs1dClGa/KmB3QETkQAuyLAUkXQsZsFTwxikc6xpPyyh84I4UQR8Mpw/S2R8OWvhds/IaWNBCQ1Ka4gwx0FW3YCr6ZF4ycCSC97yh13vetefCXGuV6zioyMQYEJfANPodm46tf+Jf/25gece+PjibGRVj7RSN7WkMiZ0c2KZEbnY2i0t3LJ7N5zXb/YDLWJuvuUqN3eZ++mfSOgHCctoBxFJu0pwRoI0AkxmoTnWoOz2EpRA4uYuP9rLxaaD0Ns3B3QJ5e/Xkayoofg5ZsKjSz6qBJQsV1jqSOhoxRO1tGfrzz3oHXEHvp0yFq6ihZ4LyWBoBGPpEn+3IGwCsZKkS1C3kRuNV9WT3jPuWPOem39JnHLJax0BBA9i/PvPWMx/BKiX+t771+5+9J5PDjzz4C2L08Fly5SWLhmVMlSo9ImNEsGpEKzEImENyqaUGoPCEkWPba8ilRHJo7YzqtF5nTnuST1Xq2Cyy72oJfYtVXHLhbVh6FZXvtlK6qA+koBuZtT3XOYlanN1/56sfe90F1iQsSd2VJiTJQmJrpNlX2xU2mPq+JlW9n5rAAep1U8Y2uFj8nOJwNxdu9iso1gMbutTGZJOReCwdaqBAFviZhmIuOwGTTXpD1YNnHXtJ34GXnft9zkRbu7mbaauzBb6TCE7zeclUt96z5l7Hvv+J8d+8sSH+szQkm7VlKCbEhshmqgLUicgywyEoYKScpAlDRDKu2O9whyKTpAyPGgRMaFP8xwdz+nak+LGxUFIxIvc7BgfJ4lXF1Dymx4zpNluE1QFw+z3uU2KLFzzhSCNVYZi6mEZW7KGIGMBmUtILhaT5/DIbEYxebTqKT9gwsGEfkzriDqu+WZNGDtPlN8JxigIRIQuoWkyELVu9+pIMNJ7/nXfWHLFjb8ilp41ckzX4TcvCASY0BfENPmb9B3a/m3j6KYHPrnvJ098qKoH+5aohjS6KetQBqtiEqGhxCXspoQSkNhRCfWisI4YUAIypr/g7p0t87mf/MMRenFnWJoWyxik9d3UkuEU0npGlvl8IHT0pCMxU0Y8uuBzLXgkclSYq/RUKDPeSt3KfseNSxEaOJjQjzwn4/xfaNFP3gDM/ZzO2h3k7VMBv+UoAYy5kzKhzowRCk4hyeNWPgzdKLhkKF41tP6aX3ofnPPOR9k6n7VZmtULMaHPKtwnfjHnnIStd2zcs+meTx34yeMfWq739S2KQeIzHntdV8sVEhlpNFOoVkogUIAG+yNjPFOE0JRlirV7l5wmkudj7hGYLP2Kd0QqbkZBKAOQWUCtUZujKdWdY/9zTJcDO7flw4XITTuhE2GTLryFcrUEUTUiHXi01KkSOvQytolOvLLdMRxM6ONgeRV3dLUHoKFMCXISGrmeu69M0BacLfWY7WNm7JRLrv3T2lk3/4FYu7Z5DJDzWxcQAkzoC2iyilv1pH7Pxm2P/+BzY8/fe+OqKOsuS61clgprcFeObrcAAoylmQZZ6tgiE+PpmShc8Kgc5ZPm+JhbBA7XghRLvNDVjsRu6o4IXTeMb76ChI5Neg6SWJ3dsUyudW/pwOdCNEjkcdXrwIsAM62114tvqctNNX/j0O1YZ3e08+tq+PBWFhs3BdDMQ2sl4zfqFjdUJPkqXL+pJaO9528585pbrhHr3vrq/BoF3810IsCEPp1ozuK5yP2+5e7X7Xjsjs+NvvTo9d16f8/yaiia9QY1cinFNUjSBoR5pjs2cyl6J2NuLLrliNDRQmdSn8WZm3ipQ5F5u5pahLkO2E1tNCHrXGhB1rl06GYlSbg5u3fyIuQNWIqMehKgwaoL51pla5jpHldjqC6qIgNBIxsjUscyN62R4KdC6kzokyfaE7qPnTcDLG20UNEo7+oAy9a0kM5JpXfpnmTp5Z/4ld5/d8tfCTElsOd0TfHFjx8BJvTjx27OP+mcC2DbXedveeC7v+Zefuhdy4N6rYzuzgxbrkrIsDZVRqClAp27NiUk5JIbP5jQ53Iii0S4IpbeTubozka99qyuidAxho7Z7iguI7VXhJvrvVjRV72oX6dSyvygDYdykLoEYwRQ7oopYY4kYZUBrNDAmHv7cTRyHxemmctZmx/XppZN2JwFv+vYatk5iKm6Beg7n8gQRmyQxmsv++aSK279JbHm3P75ced8FzOFABP6TCE7S+clUv/J9y7d/dA//+HwS49dtKqkgxrKwtYbIIMIUhFBJlA1CmOV+NVPyCWXq1BQgtycs8IsYTXfLtMeN28ndN8BTVAinEtRFS6DbDQDZ7DXeUiZ7fh6q8/5HMpwYyIcZay7QqLWo1wkvWHMHJdeBilkkEGpFkGtt0Yx9Xo6SqR+UO39EYxIJvSJq7h4gBuKn1vqdY7Y4+/1sNZ8LanZ82789NvEuTc8Ot/WP9/P9CPAhD79mM76GZ17KU6efuqdOx+740u1vc+9sdeNhCq30rUqEaGjaxO380GABI41zBmVtBgULOHEuFmfM7xgq80otielDmm+uYrC/HUibgn1oTpkTQsuQTFPJPKwpRpXVCm0d1Cb7YFMttB9GZtvEFMQNcnAKi8yg2Vt2NilXKtAVIuoTh3vvxBJwvv3DV48MU3OEWDp2IkzHAQRZGnTK8IpBUkGUK5UwKR12G3LWekNN/zl0ovf84lyy84AACAASURBVEXWa5/tb8bcXI8JfW5wn/arui1bSmb4iXduu+cf/lN84OW1K6sSsrERsEEEAsUmMNaqJFiMbeqUFKQihXF138iBj9lHoOVeJr+pl3ZtudSNQn0gqA82wKYGnBaAqXAKAq/ian3Sk98YzF0c/UiETjdHrVQxOcuCFpmvr4+A4ueoKgehT5TDg96Hbvpc1vBI+QVe5ZBGP/sTN4+uiPkygRJgs2EIwhiaJgZjJZRrod4XLhta+s7PvC066+3PcpnaPJq0GbwVJvQZBHe2T+3cltLYA/ffuOfJO/+gOrB5dY9oAgp/U8IS6oEr7IjswBif4Y5Z8HaOhUlmG6P5dL2DCF1LCCGkGDm62rOmhrHBBtUTo/vdN2ZB4vcW/fwldGJyghq7chYlbUW3NiR1FSmy1ONuFILHx5AFbbFTm6OSN9K0pxwBbu5yxDWLG0GU18V+5yqEZhKALHXrvc1Urbn0PZ8J33n5XwnxtomJCvPpS8D3Mq0IMKFPK5xzfzIk9ebDD964b9NtXwsHtqzowTZMuulL2ai2OSPXHBK8dral8T73d35y3gGKrrQU0yxmsGOzFQm6YaEx0gDd0C1XO6p2F+HlgtDn0jrHGTu0hT5xLguXOr6XhGcoWQ4AAglxT0iJckGA4R9N8qVI4phbh7+j273dUmeX+0RslZS0EUI80TJXqgpjsmr3qUV7z7nlF88XK6/Yd3J+s07OUTOhd+C8Y0zdPHLfB7Y9+N0/qTT3Li3ZBoQS47MapG5AqALIVAxppkFJTGg6ud2Wc7kEkNCRtBRa5qj+ZiOAzEEykkFztEEueIyqexEZ7LfjLdb2pLO5vP+jXbuIgbeaxkjre6yjDa4MuMhCXIuhXC6Tq9275dFFj8P1jV3ovdzc5WCohQWJWIGA1ETUx0HEYbInK0er33rLx6tv+Zm/4zK1o63QznqdCb2z5rM1Gvfcc1HW/9BHtj38na+VGvt6a0pDVRpwaYPe44IKJMZCSPFXJvS5WgZkoed9zjE+DlpSn3PMakfrHBuyULgkz2ond7sQPoksjzvP1b1P5brtSW3kiUCLOyd0tNgbok7NXCqVCqhSSIXV1Ed9EqkzoR8CbUoctJAaFHgtQ1DtcVsO9MPKC6/+80WX3vxFseqi+lTmiN/TOQgwoXfOXB40EufuDoZu33Tr2MuP/lHcv6XWo1I00kGjznOA3dYKYRIm9LlaBgXBoRWO8XPTBGgMN8DUDZF4e5laQYReOx2IGNvKvudkCO3NWWijiAH/tqMYH9ape0+Er5/37wVIVINasGI8vVQtQ1QKfTtggb3Ux630QvJ1Ukh9TsY8Xy7q+6FbSnItY7Z7VBvemtW6zr3pU28UG294cr7cJ9/H7CHAhD57WM/JlVAmdujbv/O5wefu/i0sZwvBkkQskgI6ctFCLHqpo+tO5Mpj/sGJ2nL+AX1QJnwRzJ1rZZM5QbWdsXICO04ciJy1o7ryUMSQ1Q2M9o9RmVosI3BaUoy9qDsvupT55EaMv8/tV/hohE7jsxZwI+nX3DihU/w/tNDEXYwCqHZVoFSJwQWYGW9IfIZK3drq0tuFd2hddpDwWeu7hvkDwpeTIkQ4w9jvnL6R1AM9/4nvMwbK5RhsmthdjUAsueSG3+u66H2/y2Vqc/1gmJvrz+3TYG7GfNJdFWPqA7f9w2/ueeqezy0TjaACDQUpNnHIGzigdpys0EMEa9SxQ1uA1G4zUMLHMVGSpiB+/I3EaeiBehIrzQk7MbaLteSTiH1yH3DK/cb35T/pdSuAJF4bAGMDDbBNA5EIicwVmuAOE8PmrjRtJr8wSN1YfWEtNg8CiCshlLtLIGKAFBqgg4xIHV0RiBn2gFcovGOVF1BBP9MCJnVslESbZ6wjxyRV60BLAc0gAC0UYNJblDkop9h3wYDGJDgJYKgSACg3RhuH39q00bN226rr//0NcOpbf8xlajO5aufvuZnQ5+/cTOudObcpHPjO97668/E7Pr88SoKaSKTSTbIArFCQyQpkWJOOcrEOCcVAjGVuBmVkvcVQWAie3gvX6slL6GQ5UlISKpx6HEjlrS0rAclmgoWZz6qwvssYWq/YTU0YBRkmwg2lIA02ZYnwRcAmqR73nNA7zDNSbCqxU6ABTZ3YMEkuqAqwkcld8qZVm67yvvDKYJq8JLJf6ITuN8j4nTIQYFGKFDAaoGSzAGEsxBaglntxdBBARqEIXHcGTNKEUs/S+k/2p9F57/34x+HyN31TiIv8l5aPkw4BJvSTaMrdS7fFgz/+0Z/veOrujy0XQ2GPTIVuNqmMzUoJBq1EWSUSj+wohEqAsWHeqc03dAmpjzpQ1zYUBUOeOVnjmocj9PYl1U7o+O+C8AtCd8ZApErURa2O1nniICKVuLBVotbJhI5jKxL8tPMZ7jKWUOoKIawFkKiUYuwOrXQqu/T69rjpKbTsFyqh+xi4Xy0o2YqNVtDtjlZ7IwjIYyEtkjySOiZCYk+G0AfJHG7GUR1OuH7bBdlpl/7rKVfc/Emx9k27T6JHGg91EgJM6CfZknAHHu7u/+Htf7zrR3d85JSyjSM9AnEghDYOMnRjBlUQyNDZGFnqIEpgUIKTgnmoFe1d7di9zbuOT+5a9snZ1+0u98lk7gnJW/BI6P6norrz+lATGiMJtUalRLg8dn6QXnuHWejF16+QeUVSJ3nYioIIm7lUBBiVgfaSSJTxj/+RUl6bqtxC/BpTYqPETR4SuiRCpzRAiZ3SAtrcYMhLYPwcPe6Ayo4xlZmGogkC6/plMLYTet3aG75wHZx17X1C5DGyhQgI3/MJI8CEfsIQLrwTuG339fZvuv33B1546KPLYLBUEVokLgSdGVCQQBBgBD325UWYbUwtWCMidu96txA4Q27Ck1029nCE3h47b7cgJxB6ngiXjmUwOjBK6nAlVQL0qTptIQriVjeywuU+Wchl4a2+SXesHK0zajiDXiKL5K2pO1tQVlDpLYMLLJG6F57xFj2S+lz3gj9R7HHtaIVjlxBrlPQVJKpDGv+0+8OQy3jIywF6bkoQOAGRrINTwr42moolb3j3H5X/3Qd+R/RdMnyi98SfX9gIMKEv7Pk77rt3Ozct2f/gP/7uyHP3fbRqhkulMIJQoYLkCEhMxJI1MA7LohJ/DSR8EUIqA7IQYtcgQi+S5Y77Rhb4B49E6O0ueXo+k7R5njiHtedWQWACkndtknUuIVZlzEukzHfcWBXiKp1K6EXv9ILQyfuDVjpk4AIBld4SueAhNKAxHwHFZnCd5o1bFnL3NVwfaKFjLgASOvrf0TpHW5w8X7ixwU0M6uGrkDojShNT4py0TdeQUWOwvLR+2jUffx+87sOPsHW+wB8m03D7TOjTAOJCPYXb/uDqHff+y3/W2596dzXZV1lccuB0AkZjv+qQSmKCPEBusEZaKDB5G9bIZhRTP6mz3HMrqnCl+42PT2JrudsLa2sSoWOWNuqzYyJcOpKCTi1ltqO7nczQtvPg+YjQ8Vz5N7boP75Q115x3+0eByrJwwRM6raGJWsaRCSo5aqqKl/GRp3bfJIcWfbUgW5hNhcqCB29Nrixwy1f4QELsSNiHmawmMkuMelSQGSwIkBCImQ2pHrc8jdd/7n4/Kv+hsvUFvo3YXrunwl9enBckGdx2Kppx6Mbdtzzzd+xWx++YVlQVzJNfH1zFHkLvUUsPre9vcvVyZoMN2Gy85h2K3aOeBHxojU5sU6aWqNSr3NslYqx8wBG9o6AaVoSlUFyQg8rup5DGUKat7zFIOt473R/9U4g9MI6R3L27WN9vb3Xb0dNdwsNXYdKTyVv4uLACIyxY+zYa8IvZEL3GzVfLYLrAkeDm2b8pkUuAYEbG8wcQDwAcy8wgo5lbSU7Gi3O+uPVz2247hdugdMvfZHL1BbkI3jab5oJfdohXVgndM4peOWeN+z8wf/8un71ibNO7SmFTjdgLElBhiWwLiCCj0QGEbo6sczNSUhlBNqhExCNJVaam/xFaid0xC9Uka8pz1A7X4LEMrW6gcZgQq73gtCU868XiFL8PSf0wjrvJEIvvBnthF58g8groRykLgFVkVDrrYEsAzRdQn/Dhi6YHLdQLfTCs+Pn2G8ArcB+91jp4ENdIihDs5lCIBWEUlN2+5iqJq+JlfVTL//AZ6sbrvmmWLWKJV4X1mN3xu6WCX3GoF04J0bdd4AXr9r3wL/81tjWxy9e3R2ROxO13q0sU7/l0DYBkjpIdLWHJdAhxtjxgZoxoefu9JYb2TOuJ+Xc+qR/Yr9z4y3zLLEk8QoJ9kDHhKjcOm2vYydLP0+SmvRN7QQLncicZF7HPUEFDuMueexVk4GIHcTdIQS1AExgICNXhrfsF6qnyN+7r/00MqUyNQeRz3rHDEkASLSCUqkCgTFgsLFSbO2rdSHCs9/zN6uuvOk3xeo3bV84Txq+05lGgAl9phFeIOenDm1PPvvu3Q/9/R/b3S+csbSCWe4G6s4nZ4VZBjJLIFTY0lJBBhGAKDKN2UJvudzbMpQLVLDOH3O5sKAIY+RCY5lanRLhIlGa6G4+IqH7BKrCQm8XsFkgy+yg2zxI+91SMV9O0qj/7gC7pKOLXZUFRF0hBFVJbvcUWwHnbYEX4vgpBGMV1dgbmZCGPSaf4hwL8npJ0EZCKayCaYySRyINTLo3XLzv1Hd85hPB62+4RwjBIjILcfJn6J6Z0GcI2IV4WrdzZwX23H3Dtge+/ZWgf9v67hATkHx3LJFowGTjcmAhyzLIULkqKC1ola7pnKN2Qi/cyBRDd47i4Zi1jg9v7J6mxzIYG6y3EuHIUrMYvPB16i3rlFTmfCx5vCOefx1r1/FY6FupyYTu1fYIiZYrHUu5DMqeqhTCrgDinhhkZEG7ha0S5y10jGN5QrcSs9pDbIVIc0tZ7Sj2ZAy4LIWwUrW7kkwsPv+KP+y5/ON/Kpaft2c61zCfa+EjwIS+8OdwWkfgdu+upjvuv2HXA9/4cjj82sauwNtAhmqFM4h0CsIacBJbXUqweeesab2JBXSy1heoIOI8yamoPXek8CW8nCtEoLSCscExaI6kvvkKJoGh2t5kQs8t/XZC997ZNkLvII33CcROpJ7nElhLHiLMb89cCi52UFoUkfBMkfW+UJXivCWOKwgXQEId5jyZKzAQU6UDaT2glywObL8JzGjX6i3rr/7Qp+CcG+4VAj/AByMwjgATOq+Gg92ge/fWzEv/fMPep7//pWzHlo1oqcelQDidgcMEnSAAFcaQ6oxcoifzcTRCRwkUTNxS9H8Epq5hdKABrmmhFJVbvcEpsYvIXba8HuNkPp4t3yJ00jJv03hf4JNAsfS2MVCSHJK6ESClV03DuLkJMpAVAXEtJOEZXQgfLcjx+/AC1Z2LpJWLYlDe1VXJ5R7oOgB6ycqh3jYqspVvuelLiy684eti8bqhBTlkvukZRYAJfUbhXbgndwde6s5euO/GvY9+64vloW3ruyUSuZL1LCDrPIhiaDabEJHBuNAdv8c/T4cl9PyUKNKDVjq621GnPRlMQDcshDYEifKeGFzPBWfoH22p7AWhT1aaw7f55iSdQOie0FqETqqEXnyHdNstaraj0JGjuLkWGWiVQVQLoNQT0d8WqoXue7z7TAjsXqjQ2yVQ5DYG7bqJ6iNXBysSO6ykS5dueGj1VZ/5ZVj3th8JsYBbzB3/140/eRQEmNB5iRwWATf4dK99/M4P7X/qe78cD25b11OORWKkSrSDMC6B1Rk1VcUqWW9dSerX7AlqIsljw4niwNcO22d9gc1HO6EX5UeemP14MbMdJT0DF0MymkB9oEl67RGW/WWoxId+dE9iXiTMn7FdGa49CxxfKzLcMUN64bdVzQmdGpWMr5kWoYMCrTERU4AMUTst8yVrFQnVRVXAVmRH67g2OS+htcRy3OdyybW+L3nHNS8moyBzXXRbkWhCIp3uD7teO/WKm34Dznj7P4ll547O5T3ztecvAkzo83du5sWduaHnFo/+6K5bBh797mfD4ddOWVGtKmczWc8SiKIIyA2PkpUOdeMw8V1S9zYBqORVhPg87aNwBhK5cgZCeg1FMtTC1oPHOmiJdeMGtPO69zR+tDAxq91GZI2jVV4faoBpovoe6pYH1Kq2IP4jTTZar51SpnbEcbY9jYpIzsQUDYw15xug3GLvXlWDVDQ9jLkOOtb94wYAkxGxvxCVhuUHeT2KlrbY2S1veztXXzb04GAeigZBTZHKzoAxGF5QIKIAAin0loFErr7spj+vXfier3GZ2lzN1MK4LhP6wpinOb1Lt2/TytFNd92676kf/mxPOrCmAk1pTV1GAWbkYswX/1f0sM2wrzU+UJGm2xQ5fRMXv9yQ0APnyR6lLhdygxe0wB11o/PuYKwbJ2sSpV2NghhKIBIB6YiGdCz12e5YxoYSphbJxrvO+Th2BKzSUFoSgSgLECGSYgaZ01hN6VX3KJETG5qM5ya0CB0zyotQxxxKx+YpcV7yVVgITeYV4rBRjVIwYiFt1k7bsuzNt/xK5ZLXfU+Ic32BOh+MwCEQYELnZXFUBEgidudjpww+/cDP7nv2jlsr9V0rVgRCSpOpJiiyMJT0kqXWCcgwC94JqpvFFqy+ppYen7lW9UT3+1FvYB6/ASU7C4lX1BhHORmSJMXGKy6EyMWk154MZ2ATrz2uBH7Ga5Er8CVKfBwagaJXOr7a3l0N/42EDhUH5UUlSpDLbEKEjq55tHZNaiAQcU7c46EMstDnAaFjGArd6/j9CLHfu9WQGUMbvkAKGHWh2ydrY8suuPrPes5/31+INa/fweuEETgSAkzovD6mhACR+t5Na3c/8u2fH3nx4ZuXJv0rqi5TTgqprSFyQksVXcn4EEYi91rbRXQ97zkiPKl70Vi0UN2CVppDgsbENiSJwlInorYBRCIC1xSQDKeQjmSUsR3IkPBBnXw/frbQj7YAD0XquLaMRF13TS1W41qJPCSkIBf6RjaYo4Bu9/YYOuns4wVzJb+5lI0lQhcRYFyg5JrUjAXNb4WeL+vMfh2L7JQL7z7tkmu/Cue89yEuUzvaSuHXmdB5DUwZAeechB33r9//oztvHXr6hz+9SA+s7AqtFELIFCJILbrT8SGK3S5TMFizHkStFquYAIS2qdes9o1eMEFuoUp3InAKvRK0mfHjKtp6IqGHNoDGcAp6zFDsPIQAFGa2o5veedc8H1NHoMCrsNSxI5sWKLgSQNxdAlWSZHljKVvRunY82XD+dWRD/4xVJQCTQMmOQigwwS+mvJLEOrNHLBruu+xnvrr4giv+hsvUpr5OTuZ38hPlZJ794xg7kfor968/8Oztt47+5OGbK2O7V9YCEDrskhrVy3QCsdNI70TU2EMdW65ixygyjEgDVbdqjpH4FvJBZWmU3meo7adCdS90o2pHjVhGB+ogUi8so0REyW24ASDrXGJJ1sldx3+0uT/SxqfQgcefYS2EUleJst4TizKqGmSQqxySv953uZtPBxI6qBI4m0Kkh4nQhYxg2EozVuqGdMk531115Se/Eq57I5epzaeJm8f3woQ+jydnvt4akfquhzbueeKOnzfP//DmOO1fYkHJUIRCYb5ulkIkLAQKrXbs8axyixxjyAYkpCDQNUoPWmwIOb8etMeEOz6E81pzcrWLAAJEoWkhHcsoEQ43LViHTolaKJSSZ12T6/0kruE/JpwP8WbfZhU3UhpUSUG5O6KubJnMyEpH13uxeaLNZBupj7cFnksNBQnGAYSYgGIaaK9DAM4dsKFtrPj/2XsTOLuqKmt8n3On92pMKgOBhJkwKsggMikyOIAyiAoKIqKtoCjdYivdtt1i2+1nq//ur/tru23b/myVTwUFBcEWUcI8T5F5CDEJJCFTpYY33XuG/2/t825VpUggqbzUq/fqXH9Yqar37j1nnVtv3b3P3msd+MzMQ075Wuee7/ylmDevtL1Y+fdPDwQ8oU+PdW74LNl29aU7X7fqtqsvopefOcsMrpvbHZIoBpJUlpFBy1YMHWp3addv66xA0U0ckLOHNDYi28KFYcYqVs5DGh0V7CDzSCRM5pB4ZbtUVwrnFOPqgjB5uxJbozZ8ddrnhPkWBj/71bMZeeo9/50mF43HPTFFXSGZyKXd2TO97ljnJFZHSX1qEDqR0RnFcYGswhaMJimVfll1kN7/bd/Z9W3nfUP0HbS8fVbTz2RHI+AJfUcj3Mbnt9ZG9MKth6x+4MZLs+fvfc9M3d9VwHwl/NJ72MAlFEhDp9yqhg9XFMSB3KGMxR/S2EufYqnQbVkyaIyHInSFV9pSUHdTqwyXqTRQoUQmnOodL9matyt5Qt8WtF/5WuQ9YNKibEZhZ0BdM4tEiaAaVYgibPm4VkJH5q59bex6NFNlDpoMLmMlSamYKAzssBky6eyFi2cc/YmvdBz6rt8IIXyb2vbdItPq3Z7Qp9VyN36y1j4R0zMvHrfurqv+vPLCgycu6IoSozRtqBDN7JtDtfIwE3poEZHD2ztgUue+W95Tb+2iOBRfOSW4cITMs3JG1XLNicgIVyOQE/qI77mz5GgDpbfG31PbckaIvSFSz+AiGlneR8+jdFS8cyshWsLqKggCWx9jHrDcQ2VzciQssoRMQmYoSfp477w/tIMzDz7h33oPPPfbYo8DV20LFv61HgFP6P4e2G4ErF3ZQQ/fcdKah37zebHmmWM6dDlAUBQEIfel44MLhI5mNXx0KhlRVRY5Uo+Ni95b9eB9XGQiWM61QKasWBEurSpumRrRwq1PcKxsK37U+tKtTV45ZEUC1GjAN71GIhbUNbOTgs6AqqZENkR7G1Lv0CpEt9rUIXS0zrHUqyGKo261qhbadNf9frfXW9/3Ndrrnff6NrUm31steHlP6C24aFNxyHbNmi566c5TVt517eW07vnD+2JDtlYiCp2wB1LsIHaoYKEtpyq7ufI9MZWWJ3Q8j4DQQx1TNpxSaWOF986TKB7pN8/XzBN6Y+/evAoeHQOZSQmiqcWZnVSYUaDMVkiHaAVze+l5pmSqpNy5Jx4yyEmRhqqk+8M5K/qOPetbM1/31h+JWQsHG4uUP9t0QMAT+nRY5UmaIxza9JL7T1v90E2fly8/dcjsgqZ0jGMzes5Dm7GoTCUocnV7aFs8Qmf3asi8RmTKhrJBRaqiWPYVkSNa2TitK8caj0BQxm05NCfZO0k3xCRcBkQOqWFuAYRnukZfekQdMztIFIgyiRY2zaQ+5Qgd5SYBxhhna2pExb2P/tnOx57/Vdrj8GfEdPclnoR7px0v4Qm9HVe1iXNiUn/ujtPXL77p8/rlJQd3BKBv7Swx645SGB5603GMd2Vr4tAndmlrKYLaV02yIpwZ1iQ0ZF/RgGRH9snHEjoTi3Huap7QJwb7SMYjJHZjg4RuHqWT1FTsKVLcm1AW1EgHGWmudkeGyD1IQbLX+RA0dwWCILBrqtpU+3Z7bM9jzvpfwRuPvU6Iha4FxB8egW1EwBP6NgLmX/7aCIDU6YU7z1h2//98oXNwxesKpuTsUqF7LkIm8djWUODNwjOt3IfuesstqRKi84xERVIsUNkejirIweGLI3T8Vy8GhAiPP7YbAfShuwfDYESlT9laPUovkE4UqcBF6EzoeLGVU4bQLelsnemwyetP+OFOR575FbHgqBe3GxR/gmmLgCf0abv0O3biIPXqs7ef9eJd11w+M1u/P/bKnW86WrwMJSZjYkeBnOY+9FEvdSSp61YaLBXruo5GDV7yBwCWkm2i0BqivYgi0lXDXucgdZkJiiimgCKO0GGryq1pHCHWMecq6x2L/3Q4O/BUSLFHEQv25Ada2IKIqKOvg0SHJRVmTOgsB1sn9HwffXsjdFZ7g7YCKts4A+AukXdx4L51Pvf1LZZ6dwckkrWQpmxjk87Y467Zx57yd8mhu90qxAljNqmmwyr6OTYSAU/ojUTTn2sTBJjUn7j57NUP/fYLHcPL9umLDJFWrOieKux7hnVtd3TjRhy958QH0g8sqsdTTtmLet+6EQnraTmDl+1vexv5kK+PPN/bzlOz2J+F7zvUyHivNnKpdK0zSmxCsemitL9KpaESt69FAnaddUlXMM4Y5h6ziz4GJ8/sE/2zAbzYN8cx0g7I6nFosdCkQ0WdczpYaIZiIoWKcmyD1CV6hQi4KG2iB5urWBR9Qi2wxoWfuGdh0pNK3KNE0mQUy4A7IdDxYYLEmbHojFTcq59RPUP7Hn/Gtztef/g3Rd8RAxMdi3+fR4D/DjwMHoEdiYBdf2/P8OJ7P7L2gd9cNkOtW1DQFUk6FcWemTQ0MERJBMFLSVrGvK8OK1Yc0iKCzwjWLgJyshYRLkjcRfTOenLHETr/cdSJmW1hc+IQglTdUAZe53IooXQwpWqlwuMOUeXEBLP5P6160tcTeoNuurw2wbWjuQ80tKih/1wFGXX2dRAVLKHMASIzyjipXmyJuGPie+iO0CM+S0AZCRZQAqETpcg8CYlHT5JGs2WuMpa0KFAUhiTTSraRus3gbm+6bf6hJ365ePAp9/lCuAbdFNP4NJ7Qp/HiT9bU7eBTs/rvvemilQ/cdMlcu3HerKgm0tKQQKpUQ+sdH37ISIqACB+QVrM0bGDxIQkjl5AMUthM5NgLBdk2rqhuU+4d/YDntCwivjoJuH871PABHZiI0rWaq9u1Uvxa/PzVCT1HfST/PlnL0JbX2RKhI8UOQo+7Iwq7AueXbhUptE9inZAR4nXdvgyJu3egPuceLgkCNxb+BbBFFe7+gWFRIrh4DxG9jAtUyZQdjGY9s9Nbzv1WYdd9fix2PcY9EfrDI7AdCHhC3w7w/Fu3HgGQ+sZ7bv7k6od/e8lsvX6nGWKYQqtFqvHhB+W4eg+PjViABoQuIdvJ+9AhaVtwEbrQrlp+pKhs4hHW+NGP6M2P+QWnZXl7wCmyI+0ePQZM+gAAIABJREFUsed7QKqkqLZOcc85wdedX+OsUbfk7PXKtPv2EcrWr0B7vjIn9LDu2ofbCEa2iMbRriahBAuN946QFEhea3jewg+PH862i9B5Tz7vbw+5uBMPnI7gUSchXOV9llKUGLdlIxKq2SgblIlJdjv4F3NO+sDlYpc3e7329rw9J31WntAnHfLpe0G76rk56x668fLVj/zmwj3khr4uUWJTCkjOKKTdc5lUIThViQ9b9hrnPfNgpBretb85Yt/eCvnxJh35nvposZRktbcQDxOa2AY1iQqklKHS+iEyJWI3NURi/J91JiKvTejT9z5o5MzHEzobuAhLCi5sMiMbGib0pCvmfyNKz9cqz7xMeDxM6O4+BInjMVRRwmn/EM578LwPcotcxUVzQSBpTU3a2qy9F+9+1Gl/T0cccb0QB3m99gkvgn/jWAQ8ofv7YVIRsGuf3HnDPdd/vn/xTR+ZZftn9gRoZ9OkDBuvjlFKdelupC25+IlTo85cgwvm2H41/yCdWAuYM+qo19OjtUyYelHeaBxtrUuj855rhg/piCVda5WUhtYNU6SRUXAtUzg8oU/q7cTtgHlPf95GgKI4FMsZqSgLNCWdIRM6suBaunVuyFGXbkW53Sihd3NFe2SrmyggIjoXMWei9AbRYZJ933rtnOPfdZmYc9zKhozFn8Qj4Ivi/D0w2QhYMOSa++YOPbDo8vWP33rhHL1uRsFUuLhIwVccZhUojjPYN3eRL+xWhcgIrT7CoDIeR96GhMhoxxA6638zoYckFPbMIRiDNjVN5eEKqYqmyMRMKGNtPnNMN/ezycZ7ulxv7B3AdI2HMwkh2IyCAlHSlVDUAUczw+5sKHJkdbl6EeaEcKoTOlrWuDuDIlLkCD0kEHpGwrguNIP9nKSoB60xes4+98076v1fpIPfd6cvhJsQ8v5NW0DAR+j+1mgKAnbVw3PW3X39FytPL/porx7oidDiAwJlf3Ck4BN2TUfkg+9g7sJtQfW9cwTW+IycKJm7aHo0Qsf32HN1bXP4z+1tByJw6mKZoNgmHKFXBspUGaxyDzoGkeuzj/XrziP27SKMpqxMa14UhJ5jjbYx1kkPLGUmY8OWQhfS7gk7simTIX53NZjbS+joeGAXQdyLaLBEWxoe8PAACoMeTVaD7AMyhV6zMosHu/c/6r9nH/uBL4l5h5RaE20/6qmKgCf0qboy02Bc9uXHdhq86+ffWv3Ize+dVVDFWQVB5Y0bKURbT9JFFa04SkcFccg9vhlJgr81di6TOplPPH26tYRuU2e+kogO0hVFwxvLHKUnskD19vhpsFqtN0Wk42UoqJyVKe6MqGtmFxO6RrElSiPqrYjbM7N8/9zJyOIpERkmkHvorIHTEnV0FqlUqaqNskeJXd509y7Hvfcysd+Ji7fnuv69HoHNIeAJ3d8XTUXALl20x7r7b/qXdU/d8fa5YTnp0ikJnVHU2U3D1SrZsOBSmCw0g0K5GvefaypyJO+60SdG6luzh479cTZaMQEFKqK0lFJ1qEbYwo+C2BN6U++e17446iyrukJRElFxRkJBISAt04btpbuiSm7R4LuSYAYDBTsWGELBZAoDFlujkPrD2U/ucvRHvhIfd/41QjRqI/+1MfCvmD4IeEKfPms9ZWdqn1/0uhdu+elVZuUf9tu9UAuidJhbfJByN1GBhWS4BYjgaZ1y+xqU5ThtjjgdspsTOLZE6GNPBYGYWMRsuKJLmipDNTI1tM2FbAgCO9ixRz6SEZnX/Jcj9p3jBlqXBJ3A8P1bRpTxX/2RTokUyi/ck17ojslEhjJRc7rB24V/nczzcwinn6Al2uYiFkxC8aaWYTagklq44NBFu5zy6Y+LnV7/sl88j8COQMAT+o5A1Z9zmxGwT/zyTS/dfcO/BasfO2RWWAlMtUxRlFCKKve6MtzYk4Lakdjk2GiChM4PBPUP47zyeawUbK73DUI3NUvVgRqlpcxF68ZptQf16vZ8bJ7Qt3npt+sNeTHclh7peI8ce+lWUdghqXtmB5lYU01UOR1vt6Dot3WDgmObUwbEfYPHTBA4/q1E4OSJhbQqmUHrdPdjC48948vB0R+7QQhuVveHR6DhCHhCbzik/oQTRcA+fO3xS+/+yVXxxuVzZwRGxFaxqAs+c3lfckRqE4Vy2YgZRqMMWsabvYDssXeOAWRlxYRuU8tta0zoypCsE3peROcJfaKrP7H3jRB6PQPCmZER8xtIvHJlI6UmJZFY6piZkOwQlAUpR+jbTei5jRC7vmFbiG2GCC5wmQxsGnRRv+zr7154zJU7Hf6er4hdD9owsZn6d3kEXhsBT+ivjZF/xSQiYB/60TuX3Pub/476X5zbQxVRsCm3rYHQ0c6Wa2ejihj96FsScNmWIY8N0vKHgzwdH1JMaSVlN7Wsojk6hz2qG5D1hL4tQO+A126W0LlrzUXObJQj0ZWesb570hNS2BORiNHSlm5nyp2v4Crc605rTOhorxQZpSLSg2Ff1p/Mf+jAUy++ROz3Zl8ItwPuAX/KUQQ8ofu7YcohULrnylPW/+HW7wcbluzUowcotqkzcGFDFlmPzDe1pZzoJF7Nbc2l1kMaHixxMRwXx1FEst6qFmAs9T30fCednb7YIGTciPwe+kSX6FXf91qEjhVjdzyCtrsi2WGp0JdQWBRUM1WCqvuEj7r0KxO6jbmiA4WbkEiKTGZrotNuLMzfUNz/zd/tPfSDfyd23dXrtU8YbP/GrUHAE/rWoORfM+kIqAeuPGXZXdf/d0/lpblFPWQDE6Iubkw05FTiNjHGGFGOG/vE6pLgox7qjgLyfffNEzpEZARJ6INngkobQegZhTKkSCSkM+d7HUWoct/UftMT+uTeKoHLsfMD1IhsL7QLUEQJFVgROPlgaSgVKdlEUdesToo7A6roihOXmeCQ+XqcagejOzMW3F2B1TYymS4FPeX1fQfdv/sZH79ELHjTsxO8jH+bR2CrEfCEvtVQ+RdONgL20Z+d9cJvvvftmap/VmRMWAgjUalWiSJBYTGmUrlCiYyZnCN2ZnPa7rC1RDSPnyNawuHkPySpur2ptHrcB74zV+EiKvh3ILVuYxpeXyKZBUzsJnNe2iO67VC22x5hkskGtO2uJ8YIDWHfepSac0lfTFmjeBL76LZGSqbUNaNIHTO6KLMVsnUxoVFo3APflkh+dHsG4kMu1Q5pYFNV1FnopBT3CpGxppqtFr3L93jPn32BXn/mdV4Rru1uvik5IU/oU3JZ/KD4Q9VaSfd89wMv3H79N2bogTkdJg2FEBJ+5CmctCIXQcMII7I1AklDJQzEDULHweIe7L/lCB0mL646Hvvv9Sp3CQ15M2KTGtqAhBJkq4KqG2psyCJUAPEx92HPiQGnRuZs4vzRHAQ2JXRm0jqpb0roUIWDJFHK7WrF7oQ6e7p4T90EqEofW3S+bYSO+8AoTT1JBw1uGKDOrplWyUT3V7Ohjv2OuL3npI99Qsw7ZE1z8PFXnW4I+E+j6bbiLTZfaxeF+v5V5/3xt//59bk00BtLmWgNHy1FQRiThdMZ9OSsk9pEXzgrydXd2RCtg75H+tXH6XmgyhnKdHhIgF91KEIqBDEXwNUGapQNGYI1J/5DV7EzcHHXAKHnsq8tBmubDHfLhJ5PEHUO0G4H8VqpKLUpBQVJXT2dJIqCCR3e6SPHNvSlu71zZGwCSsKIyqUh6oxjUwm7aqujnZ/d5+3vu1QcfM7tbQK2n0YLIOAJvQUWaboP0S5dWqBl131mya1Xf3Z2mM4sBjpGx5jmKvN6NTPTNuRhEUaDcAUL0kDgI4/U84Il/B4qc9wGZwQFQcCEThrp05A12tMhRcMbyhTqiEKdi8i4FCsIHW1J3BFV70Oe7mvUrPmPjcTHptzHErrbQyeyoWZCRx0covRCd4FUCCGYiRE6Z2uwPROFlGUZJUlkLWVqVVbcWHzDmVfOPfa9V4hZCwebhY2/7vRDwBP69FvzlpyxXX9vT/WRBy958a4f/Nn8YtYb2CQytUyipQ2RUk7c8KDmSJ00R+n4OVLtuYc6InlE1qhFBqEz/df9y0HmHNFViaPzdCilouwgqVBkVU/F8ntdkZUn9ObfSpsj9NxSFaPDeuaEjiZxJTLSVrOdaueMTsrCKpvyTOTIWxtx/5jAkA2lqQoa7C8uWLz3WX/xGbHrMY9N5Lz+PR6BiSLgCX2iyPn3TToCcGirPHrdZX+858aPzC909MWqFMa2jC1uqokOUiJmMg+tphCRGOEDPCFdF3/JI3Sk5fEzjtCF4FQ72psKYUKmJlirPR3KSGQBJZTwHrqrqHdObBwJBs5XG3vr/mgeAiD0kc4COaoXl2+F4PcoYsRDWJ52hwMbNN07+zrIJEi5T5zQw3qfu5XaVoNIrazR2r1OOucL8bGfu8orwjXvvpiuV/aEPl1XvgXnzV7qy+6YN/D0w59effevLtyzozIrqq0N0S1Ulj2UygLPKjIpJbbiiuRgaVnvX8d+OgjfHfUqZRQ1aSJOqpuQVMVSZWOVLIrpKaYAveecr0X1/CihIwpEVZ0n9KlzI/Ga1CvUET3juQslE9hSQZTOlqkhUWoykhGxWYvohmqc63jI74tNZrRJJaSzYRl7SI0aDGmVrZmNUffAwOz97ll4zqUXiu7D1k4dZPxIpgsCntCny0q3yTyZ1F9cvMvwQ9d/qn/xzR+ZHQzMCW0WVGWHzARa2BA8K0qMq3rHJzq3sVHEX3Gwkhcn2w0h+Ia4SGwjQlCfDmZUGUopVCHFosDV7vyucYSOPXR3Lh+hT4Vba4TMRwR83EOYUJaiKHJmP1AWDCX7odtAU6E3oWBGSFmYTYjQ+SHAoB7DWpsk6dI0Xr/3uz95UXLYeTf6NrWpcFdMvzF4Qp9+a97yM2ZSX/nAgspDN1+y4v7rPrpTUc8wxoRRIAWiMpulFEcBGZWyeQrS6kYk3JGe76dzVbywhN12KUKSGfTaDafaTcVSaBGfx1z0BPnQEdGSvMq9Hg36KvepcTttidAhEIQDaXccqHjHwxiMWahAFM0KiRJXR2GMJlmXnoO2HHQJsB1TKBT4KwrfImzLINrXlgpJREKn1oaJ3qCCYdr9jTftdOYll4ieA9ZPDVT8KKYbAp7Qp9uKt8l8uUf9hdv33rj4pj/d8PQ975sha3MSU5G2VqHOYpFSBRWvgKxRTOJWhKTrCVNE57GtcUoWTm5SRKRrlmoDVVIlTZFBpB/V985HARvZP2eGGNuU3iagtvA0NkvoKIrToxmUfC8dMrAga5NYimdHJIou3w6idryPgkdH6LmQECJ8vD+GnS+ifWWQaiejazYNu6trwr5lC99z8Xli4ekPtzCMfugtjoAn9BZfwOk8fGttQMvv2v/Fe67/bO35e87fSQ7HBVUmkymyhV5Kweky5II2p+jmSJgT8DB9wbdstCIphdf5xjKJmqAkKFJgQzLKqcKBvPnduRIZyHwb+pWn8xrt6LnnRXFbInTURbi1d0WNecsh1jULFRXmxCSLkpDaceSNhzzstjsCx/47CBxkzwSfS8mi2E5KGxTibNmQre78pvd+p/eA939Z7LlndUfP2Z/fI7AlBDyh+3ujpRGw9omYnnvxqJV3/exL9qXHj5tph4pSZ2TjHqqhQy1wfehoUMv3zfNqd2lQJBdTViWqDqXO61xJKgRFkqD9elQGa1R+FBgjSpO7vG3Jh7ulQW2hwedtayz2g1bCsXvoRFzoCDLGHcCkLV38DdKuyZQKswsUdsl64ZwaJXSQe71SjtsapSRtLUfmIPowjEkFoSnLuDTcueDefU6/+BKx6/HPtRB0fqhtiIAn9DZc1Ok2JWtXFOnph96y/I5ffI5efvbEucUgqJUrFKK6mV07XLkza8bJ0aI4VCgHKqbqIOxR4aYGgofXuXPowgc3k/kYr+08SGdCH9MyNd0wnyrzfS1Cz1PuI5r7AdYUt4SiqqhRNDOiYk/EaoEG2zNYVqi/8/pbUryvLknUK+XxbAAhmUBGdthGteVZXDv01PM/Sod95JdCjJMhnCog+XFMGwQ8oU+bpW7vidqVKzto9Z0nr3zk5strK58+pktXqDtGOGb4P5c0p5GiJ/43StyHBdUGU1IVRVEQc6uaUU7XHRXRGh/uYz6nnZiIc/PCMRK9tze8U3Z2/PBVX5+xUXouBISixZz0QdK5Dj9H6Kij6CEq9BQoKURM6FxDBxXAOqHjvuG9d7wXokVRzASfpdqss4WyWnDELQtPufBPxM6+TW3K3iTTaGCe0KfRYrf7VK1d06UfueOdS++67vMzhv54ZKfqp2Jdbzsz0O0O3Icz/0xwS5rekJEpWbKprRN6RFbh4x7l7c6SE4QxNpULj3RP6FPjbtocoW8yMi2YgHmvvS4BywIzpCkVNVKJps6ZRUqKMVm0NPDWCj/GcYQOUxcctSxzqfY4QcW71YaycteCDXNPvPAj4SHvvdlH51Pjfpjuo/CEPt3vgDabv137dDctf+LUl+6+9rJk4IUjZ1GJhKmRQpEbpGCDiDPw0liSmaTKy1UK08BpcuN/dW14AzU57JzXFeHygjphQ7bs9IQ+NW6csSl3zpiMUYvjEY4jdETxXNwmDWUio1TWqHNWJxU7AvbkYx8+Nt9BRSV8792euTIg94hkGNBQpjJZ6NPx7of/e/dJ53xF9B0xMDXQ8KOY7gh4Qp/ud0Abzt+uX9+jl9156sr7fnFZcdV9b5wdpZRRTBmFlMkCO6rJcpVqG8oUlGMKTDyCQl78Vs+ovyLdznvonHZ3fzqbMwRpQ0jbckpGGqpSRh3dkrpmElEsqaIlKSkpRLebSSnQioVpaqkmE0VkQklDVMxWm51WH/r+T5wq9nnH420Jjp9USyLgCb0ll80P+rUQsBuW9Opn7n336nt/clkyvPywojQoZKJSKimRBeqsKtqwfA0VxQwSNnA77PVq9vEtUO5XdX91k6vNeUJ/rTWY6r/HM1lqMyp2Ceros0SJoLJ1UsESFe42o9BoFiciG1DZGjKFJFttOoN5R5z91Rn7nPp136Y21Vd5eo3PE/r0Wu9pNVvbv3RG6Ynbz1jz2C1/GqxdfMic2JI1BakGNIWDKZnBjALZAbreLKFvDqwR04/6L33bWgvfUlD9M4qCTqKoLybqcMVv+I/3zpFuN5pi6Qx8ZLFoVgwNmb79j7tx5lv/5NNiwVEvtvDs/dDbEAFP6G24qH5KowjYjctm9i/+/dnrHrrm0s7hlfvPkZ0iWzssyi8P04xCD2WodIdj1phKaX43F8K9EklP6G10d2HNTUpUDIj6YpJdECByFe6jKnEBCTj4oUwyKVSeL+vC695z8al08Mdu8nrtbXQvtMlUPKG3yUL6aWwZAbt68dyNT996zuBDt35yxqoV+3eVaqI0oCiJu0nrUYcuR+R1ERkPaPsjgKI3g71xS7YvpKA3Zgc9RO2yLhMsgyKlaZW6i2RXllJVeN1x185+2/svFjNP2Nj+APkZthoCntBbbcX8eCeEgF1/74L0jpsvHfz9tR/r3DjYZ0UXCZivsCzomKOuHONT6ROCueXeJKD+FqQk+gRFvQmZ0CnJOXdc6AuGnH5PdcmWuua8OP9tH/4wve5Dt/novOWWeloM2BP6tFhmP0m7enGneezuz6z/zZV/nqx7eZYVHSRFQqIeoecI1c22WAUuj9jx9RUE781Z2uCmEqxHoGWVgp6MCn0JZTGS69hxCTlGD7UmKhSyl6pZuNtRp1wRHn7yP4k5xw21weT9FNoQAU/obbiofkqvRMAuXbT/y7f/+q/N43e/vy+rRGUWkzEUCfSU11+PdrT8rZ7Qp8FthGLIkJQtU9ydUWFWRLogKUVnoi1ylF6UigZMqNd07rJ4v9PPP5/2OeMpH51Pg1ujRafoCb1FF84Pe+sRQGHc0J0/+uTLjyy6dHZEs5NaLaitq5AtpRyhh9IZuEAlVtpgRFmMK5tzg+z65fK+87y1zfuhb/06TL1XChIUUUZVksUKFWdKEp2SMkGU2S7eR++KbPrHYYrmn/qJi6OjT/ihEN5Nbeqtox9RjoAndH8vtDUCbLH6+G/f1H//T/+mtvLxt8dJSGEmRDCYkqxZqgyWuQ89IEGSYMoiWF0MRwg/9XF77J7Q2+l2EWShBS8zoqRMHX0RUYclikPqH1Y0c+Y8u2b9etO58I1X9b79o5f7NrV2Wvv2nIsn9PZcVz+rPIs++NSsNTf//DPquVv+tFut6zaBDUIbUJSFFOmQhjeUKa1qwsYpZF+hIsc+6DD1gMvWuM1zT+jtdGsJV/gG7fagTMVZMdmugGQiSWU10lFvulL1RPue/IEz6KgDfyPEEVk7zd7Ppf0Q8ITefmvqZ5STubUhPX79CS8suvqvCxuePa4vqpCxVSFEQMIklIgi6bJlL/RKqcof7lEQsaY7tN2tgr77yK66S8vXN9x9yr09bjOBBziTUWZL1DGrg8SMiNJQUXdXh1qytiJ7Dz/jX2Yfferfi12OWNceM/azaGcEPKG38+pO87nZpffs8fK913yusvThCzt0udAla0Fshthso6pCisJOCnVEumqoMlymWgWe6IEjdROSyawn9La/hyDarilTFSr2FUnMSqgaWcpIZQOFeSv2Pu3SC2jfk+8RQtSt2NoeED/BFkbAE3oLL54f+pYRsCtWFM3K2y5YcuuP/7ZX9fcVAiMDVREJpVzVXkNbkkwoUIJiEZFKLZUGh6lWygiWnPgZ9tQFlOTGHD5Cb6+7DjKvrAqnNcU9AQWzQ6p2xKUlGyvJwhPP/lLnEWd9R/Tt7d3U2mvZ23Y2ntDbdmmn98Tsk79auPbR2/6q9OyDH+6LyxSIYeHy6BEJSjjy1pmhwBBFQUjCBByh14ZrHLGD1EOIinhCb+sbCSUSqIOEcQ9FNeqaTbQhSczaeQdfs98pF/wl7XrMC75Nra1vgbaanCf0tlpOPxkgYDf+YaZ5+PcXP7vol3+5U5EKRVmJdDZAQSBI2QKRltSZdFCtXKIglGS05WgcaXZVUVQdTklXNe+pSzwAwD/d26VO6ZsLmm5E+H/3keaWy454muN3WE/8wuS/g4BMEFCmDAVRkWq2RH07y/JSK5M93ve5c4O+I6/3bmpTetn94MYh4And3xJthQC3qT12w5Gr77zyy3blU2/vLhYQiwuYbkDvLWCSNmyHCkMWEwgy2tmjok0tsPU99cEK1YZTSsIiUb3qPQhQTEekoR6GtrYQoiTakcf4cvjxf2jjFGZHfl23ZW2rRZjEyQB7wetqnMkORWx/qiXMdTQFVCNBih/WhIk4Q2MFKttdwTpH6Ch8lEVSCanBaFDudOzx3+84/n1/Szsft8JH55O4mP5S242AJ/TthtCfYCohYFc9PGfjI7/99NAj/3N5r+mXoQwiYWC4guInVK0j8kYc59zUDKwx67rdgQgptCHpjEiXMkqrGaWljCKZUEgBF8nhiGTIDwCZTkmEeDDwhN6se2AsocPCXFNSJ3QE4xkFouIIXcd1Qk+YwI1kPTgSAg8BkpQRVEqianVeb7T3u95zLh114vVeRKZZq+qvO1EEPKFPFDn/vimHgLVPxPTwI29fdtd1XxcbXjxwdmJJ6LJAyhwSn0i14kMfZA5S59SrdB7YwjhhGW5TMwGJFAIzljauG+TedOypoz8dSnKIzPG7LMtIRu5BYYvHa0TuiCr9MXEErMAiohsBxY5IqYf8HaJ0EopIIELHDRBwdE42rj+AOUIP8WCmUkq6CuqpjcNyt3d94Iq+E8/6ttj1oA0TH5V/p0egOQh4Qm8O7v6qOwABu/LB3Tbe8v0v9D/zwMUzuwo2VNUwNFXeWdVM6KPkCULP0+RIu4LQuT/dCoLwDMgBaVpuZytlpFNNEUWEKB796VCQQ4pev9K2ZdOZeULfASvtTonoPCd0KLDzwxrs0pCN4S0VLGxGBmtQJ3oQOnvdy5SksSQzTVFHTBuzklrbObv/wE988Tx6w9sXCYGnAX94BFoLAU/orbVefrRbQMCuf67HPHvLeasW/b+/76iu6+3q7pPVapkSEDchGnepVc0RHaJ0pM/hh42065g/AyM4Sgehu4g9oPJAmYVnhJKckkdonyvJjXdfBam4C7h/bNGlLZ+Hj9AnfE+PJXQSIHTLmRSJ/XJE5OgwlwYVFBy1Y+8cxA5CF5RSYDWJTFNx1ozsgWVL5aHnfPyL4bHnf1fsuaf3Op/wqvg3NhMBT+jNRN9fuyEIWGslPXXjgavvvvYK+eJDZ82JSVQVsun4YHcFbIZcxAZC531XpNk3Q+iIvDl1i2w8onUZkU2JCb065Eg9kQm/RivLcrFjD0/oDVnSrToJonMuaEMEXk+tB0ZQqOuEbiUpyU0N/ECHLZbAYG1B6AqPd5QE0q6qVqm8yx7P7HveJRfToafc5aPzrYLfv2gKIuAJfQouih/StiFg+x+ZUbrnV3+y7uGb/mGGLZte+K9UKiTDiJAox8e3rUfMeYROQrObFmlQPaK30Vh6rCELiDsWMZM6CD0tK5eexz57fd8dafr8GCH08VPII/bxKXgfoW/bYm/yamd/CoLWQY0JOjQgbUHSxLxvrqQjdbdEqJ3AgxruCHQnGKulSVeYRO1/9if/Uu73lh+IhQsHt2NA/q0egaYi4Am9qfD7i28vAtym9uwNh6+7/Sdfq634w4m9MTTeNKfajdKkgsJImh0qb4jLuVGJCZ3F2ev7rY7Qsd+KFPwIqbNpS8ikDl9NpN/Lg073vRB1MNF7Qt/eVZzo+x1xY81UWOP98tBAFAj1DyiAA6GHbJ6HBzaQOH7P3epWUi2kbNnQgNzluHf8V987Pv41ceBhyyY6Ev8+j8BUQMAT+lRYBT+GCSNgl9+5y9BjN39u1d3X/9nuMxKjMvSdKUqsImk0aYEPdETg9Z5jLozTFNoUSXgyhA9+15OeE3r+7zz1DicjLWVlAAAgAElEQVQ2FMSFFJPJEKmXqVquMZkXggIXYuEBwDBZOJe2kUi9vsmeZwhG8gB5pO4j9AmvPbZEBKrWiZjQ0YqGffGc0NGqqETIrQ0qq1IhRDpesY5AFHfa9YKqK5KkevB7L/zT6IB3/FzsumtlwoPxb/QITAEEPKFPgUXwQ5gYAtYuLdAji9793E0//u5MOzyjQJmwBspvmiJrKArA4rZO5q4gjgujSFNs0c5kyNqkvr/+SkLHqLg4zroiOYjBCi1Ip5aq5SqpSkYyc0VYOFj7HQV23Nfu5pT/gXlCn9gav9q7QOgBR+hE2ThCh4gMHuQojilNqxSRooLEgxlRqVylwsyd1FPDNTXzhJP/Y/4Jp/yj2PvNyxs/Qn9Gj8DkIuAJfXLx9ldrEALWWkFLb9mtet/P/2LZg7/7xPz5821WLgdIt4PEoREWSUFoWwNxa4pJSVdEhdRrYhyhG3oloWOII3vqKLJClMf75kRShkzcWU1RWkopG9IklPszimREEg8NaHjSrnp+kwp694Qwkgngf/gIfcJ3xKaEnrL6GxoJWaq3TugmhD2qoiAtUVccUZZWieIusyYLzeDcBY/s86GLvpwcutctQiysTXgg/o0egSmCgCf0KbIQfhjbhoBdf29P9uR9H1h/+1Xf7BXVrqooSKS9Y12lOJBUsZD61FSwKRM3Uq8csdUJPQahW/B0QIbCTVLu40fC/uj16ncp8Z1gkRlTs5QNK1IVTSrTvNcesnMXCL3e/ja2Jc4T+rYt8mu82qXcsXZEKlBkBLZSFGdHsKZY2xqKGkOiOCuTMCkJGVJW6K0+PWTKC9999jd6jz/ne2LBgvUNHZg/mUegSQh4Qm8S8P6yE0eAC+GevObgl267+lvxqifeOmdGp1w3bClMCiTLGyiJJSmRkFKKEon2JN41d8IyFopwlkIDFTH0KENZbMsHImzsjePA3jgeCKx232Nf3VYl1YZS3lMnFGRR5ExdjOToPDd1GbmCj9AnvvCbeSeU+7goDnLsXBuhnE4/hZyRyURI0mQ0syBpcOMGKvbOMkuGMqJ9D712//df9Hd00JGPCfFa6j8NHbI/mUdghyHgCX2HQetPvKMQQJsa3Xv9hUvuuPZbe/QmWWVoMLGdM0lISVmpn4ufYKSijK6nvFHX7Pa52cSDe8zrBe6vFQVKOWLGgnOC3FFUBbKOgphiVaSsnFGlVOY0PCknIQvtdxafGdPSxpfyhN7w24L1BUDoqJtAYSI03ZGRQQI+QNFjRkVdgWSv7ddUWyE7+vd738ev6Djy1B+LuXOHGz4gf0KPQJMQ8ITeJOD9ZSeGgLU2VI9ed+TQ3T/6pln11NGzZvSKDev6qWvGDMq0YsKNpKZYl2ByTRVbICOcBWoAJTFofhv0JqM/HQTrXNjYWrNeBDd2ZHkLG3bhOVqHbCjS7wIp9YAiVaRAB6SqIPUqqSr2cCUTOvbSWRt+kxNumg94hZLcxGCZlu+y0qGnOcAORwgdVe7YXkFWJsM6oUWxMkQdvd3ZsuFUdh92zH/Pfs/Hvk57H7bEu6lNy1unbSftCb1tl7Y9J2ZXPDp//f3XfnX4oesv2L1b2HKqgzBKyOiM0kxTWChQKBTZ8gYKk5iqVCQlIgqY0BGzQYgdH/ggdKiMwUZzy4QO8kaqHYTOqfeAOPrHYTJDgQopCTuQ06fqcJkqw6l7RtCSvyJW32yU7uTqXksJvj0XsVGzwsMV1pobC2LGOYK3PWdfBBu0WAlTnYy6CsKsGSrryuwFL+717nO+Qq9729W+Ta1RC+HPM1UQ8IQ+VVbCj+M1EXBuave/+4lf/efPdy8oU9DVQBnsl44e2CdH6hXE7byuR01ZcttU3gcfiZy3L0YGuesMDwSC+9R11bD4DL5ij510wPKwTDKokidBMkAhviCl6var9Ujz1QBAVmHskT8kQCxnuh54zAqkJmUMKRuTkDEFXCinSZMiEaDdELgbChOhlpdNdfabz/jXWe98/z+LPQ9aPV1x8/NuXwQ8obfv2rbVzLhNbfmDe666+V+/Eax58swOy6pgwSgxN2e6oI48/Q7jFpsJUhVD2XDG6XepEaOH7LuNKB4tddzOFjhNcbi15aljT+jbtoYgdIkInUm7QCSdNarGXofISApLQimiKNL9NWPVgr0e3vOdF/wtnXD6b4Xg1Iw/PAJthYAn9LZazvadjF3zRFftsTvPf/6OH317185Mi0olDCHbMr4tbJIhyEzG/ujczKYEBTbiSvdsOKXSUJlMzaXzQ9h2EnrZLe/Bo3BOhoJU3Txm24c9Ilmz7W9tl3dwyt1JvUYmZvvbSmApY612w1svkVV22MhsjehdvedJZ/5r8aRT/q9YcIBvU2uXe8DPYxMEPKH7G2LKI8Buakt+e+Bzv/rRv/dkLx5VUINhkGYUQTRkvH/pJM8GRXLYY4dRC3rTkWZH9TtkYSE8g0I5m1r+fYB9XjaEcSX2iNLZq/tVG+e2NCFP6K66HZXtARUVKFxSORSUcQsbd6JTIrVaMZxR4YDjfz7/9HO+Soe++SlfCDfJfyT+cpOGgCf0SYPaX2iiCMDrvHTnjy556YGb/363uUWVDqyLIsh+Ig6D8cZET9yA99m6xisIm0laCPZMZ8lYHVBaqVF1OKWsorjyPRSwXgUTkTOAqbuvbsmlDad1RzNn2QCgdsApcjtcFDwWFPARVJWCNCR/JbY2yOpaVa1P+pbvdvrHv5W86eQfiXnzSjtgKP6UHoEpgYAn9CmxDH4QW0KAo/PHfvbmF/7nB/85Q2/YS+hqkECT2xBZtKkFQVOpLm9jQ8odBXJs0qJQaS0oEgmn22G7Whp0kXoENbkx6fecsD2hb/vfAPzQ0W8eGEOxht4uFAEDMhEyHxota2agStVZb3jLT2a8+4Jv0P6HPOej823H2b+jdRDwhN46azUtR2pXLpq9dtHP/mP4uYfPmN8Z2oHB/rC32EEic1rs8LtuZmHciM1q4JTk8L1V1vWio7od4iYZkS5lVCtlTOrj99S3ZmHHR+p5Id346vetOVe7vAaETrYuGGSqrPwn2V1NUGaresDGNpu9z+I9Tzvv67TP4Tf6NrV2WXk/jy0h4And3xtTFgGWeH34O6c8d+OPrptXlJaqpSAMIxJak8xqFMchpRryrePEW5owI7cXPno42VdJOrOUyJiEklQbdul3yiAbG7PADY5X9KlvZvye0De3qKOEzlXtpKAlxJXuNa30y7Y43P2md/3Xzu/6yDfFnnv6NrUm/F34S04uAp7QJxdvf7VtQMCuvGv35df843d7qytPIJVFTOQkKbLEmt3WatZnby6hu/aznNBHXNrqqnOcijd1i9VMbFIoBxe3wMDQ0x1jtd/RpeeOTR8U8r5zH6EzYgScnKOdoSgmymrDUP7RNRva0py9H9jt3Mu+Soce+zvfprYNf3j+pS2LgCf0ll269h44RGSGb7n5E+vuueZfenW/klJGbF2KanEQutGcYnUp92YeeXbAkfpYQnd8jCI5tLJJbmmDQxuq32uVlFvamNSRJkbZG0TsrOVUPVqw+Gfj2to8oW+61hHc07KMDFzwQiKlNxoVJXpAdC/b66T3/R868swfiL33HmjmHeKv7RGYLAQ8oU8W0v4624SAffq6/Zb97idXhxuWHdAlKlEQCPYalxqlyyzaSgLSqU2ucmdnL/4r2jKhI/XO1qr16ne0tFVLFXZokxkq3+uEntuuBlCWQ/T5ykcVT+ib3kYB7gEtSFFEIoA077BaZ4XRux92w8IPXPRFsf9xz2zTjedf7BFoYQQ8obfw4rXr0O3KBzsG7/7pV/ufvPezMxKpI1tFdzEJ2JbqgAQKz5BmlSA9sGDzDhA6R9L1PfTxUTqK4vhglThBsYiZ3NM0pbSUsZ86BGlwcHoe5I6HFhjAGJeGH3t4Qh+DBjIiqaK4UKRUh5RC5LWYmZeDZMmu7zr/n3oPPeNHYpddys27O/yVPQKTi4An9MnF219tKxCwf7jqLUtu+N5PZ+rBuVEQBsJUSZiKc0yjhCyK4KSzPxVIvTfxGE/oGMrYArkRQkbfuXaV8HEQsb64SYnUoHbEnmUUhzFFcIFTqJR3rx1fMOcJfVNCF8pQXEgoMxENaG0HQznQdeiRV88/8/xvil0Pf76Jt4a/tEdg0hHwhD7pkPsLvhoCdvmdu6y8/af/nj3/4LvmQoNFG0kmI2mrLloVRSIRkqKMldDD8X7jkwzv5gg9H8JYq1Wk3XPb1ZzkpZYkazFVB6pULlUpYKtP+KjXPdVFRFb5orhXW9IQEvkaT0qhWquF3ti706NvOPfjX6VjDvydEAtrk3w7+Mt5BJqKgCf0psLvLz4WAbSpZYv+8YIX7v/1P/eR6uxQNZGYGgUgb5hwSHhcd5C2AWlbI0uaovF+45MMaU7om8xj5K/KeafjsFKM9KkbAxEU17oWqyLpsuL99KyakdUoigud1rsNnEzsmMNH6JsuMDY8IDCEVM1a2fli8c1n/OdOp5z/HbFggddrn+S/BX+55iPgCb35a+BHUEfALl20x9Jf//vPg/XPH9SXdCa2WhYxonOhYGbOAjKwyYT1hpDQUK/vTTcRwc0ROhN4/S+LC/eQXhfORx17/ogoEaUjvS6ziCITkaplNDxYoqymKJEJBSYkVdMUwXt95GTOP32sO9tEhWWQyp8K1qsjCRYUDECMp95wr/NPJjaXJ0K9m/M9D+pwQLwHZK4pSBJVMUr39+501z4X/fXn6YCjHhVinDBAE+8Rf2mPwGQh4Al9spD213lVBKxdFNJtiz/17O9/+PVdCioOZRBAcQ195jggGiKsq27H4T7woSLSfFGZ7VlaFMEx9cDcpWZZJhbiM6iILwRFVyCHlDJIDQ8EAg5tGUf++B6/H0vOW7JiHS9i46rz8aDRvKY/ELQbg/sK17Riir78kA1WtFQkw4zS8jD1Jp0kw5iGlaAaaZLGPewE1phqWNAv1Gjpoe89/3/Lo4/5oZh3iNdr356b0r+3ZRHwhN6yS9deA7dPX3fsc7/63nd2tuv2LWSDUZoqESRFSm3ALlqh1RRYxel3JnSO1Fqf0JVVoyl2LUmXNdWGM9JVU7djDVjOFPvrGtX9KJeXo3+2IOptJfRXVuY3h9RztzR8xcNaaCQlWcIPaqOEXiNpFAXwmUd7WlSAvzlJZG4g8aq1XqMDlRx45G27veecz4gD3vxse/1l+Nl4BLYeAU/oW4+Vf+UOQsD2PzJj+a9/cm3/k7cfe8BMEVJ5vUR63QYJZeR6tCEkg27jgFvWEJg6ot+SqckOGmrDT8t+6nVxGe5TV5J0VXOUXkOfupYUhwkFQpJSiiwK5mDXKgSn8iFYg2N8pD0+Ut9ShL659zZ8kls4IdZRBYZT57FGWh2mpy6lzgWFUpPQKSVJQrWqJmUERWERlZJkTY10EJhy0KH7k56nDzjrvK/S295wnRAHpZM1fn8dj8BUQ8AT+lRbkWk4HvvQ1e988Pr/unK3rrSnu7Y+DFRFhEkH1bQre+N0MyJ0Tru7HvRMhLynzi7YzQkwG7JSIC70nyPvLEFqImbxnKyq2MwlraRU15njtjdsMYDQXZoCFqHuT3hbCZ23K1gMp3ng5RE6lP8S5UTY8UVLrDEqJQyRykiGBVJKUhgnFBqitFaiKDBUDWO7WnYP9h5y9M92PuOsvxF7HLGqIYviT+IRaFEEPKG36MK1y7Dtyjt2W37DD35CG/54RJ8shXFtUEirBAUxZSbgSNz1n2fYL3U8hmgVLV1sew33sk1bu1oJGxAy/mOy1u4RJZQJC9FAGrY0VOa9dcoMi86w8IyVbt99M8dIFfxIUZl74SuL5/IXNI/Q6wNz7nP1KjgVWFKBYvtTHBElpFNLJBKuGdBZSmGgqRBatdaE2erePZ8+5MwPfoHeesYiIepvaqUbwI/VI9BABDyhNxBMf6ptQ8Da55LKTddcvPbRW77cLUozonRQFKVxbUhBQjWEa9IprUU2cxEbE3roCJ13W3VLEzqTLUjdSpdCr7u04XthAtZ8h0ubqiBXETDZQ3QGhI7WtvHa8VtP6Nu2Vjvq1UiyY64wsMFctNRM6PiKGcamSDoVlIQJi+9oUaMkiW0tS81LOly+0ynn/eOsd5z732Lu3OEdNUZ/Xo9AqyDgCb1VVqoNx2mf/O3Cpb/5j6vnmHX7qeF1ha5ICqsyTqXbsEC1zJCEXao1TOgSe6coDhshdHiv4eetG6FjWccKzuAPkvfJrROXgWpcVlaUDacEDXj0psOhDb/PK9VxjvH2qvntsklb2Ph7CA8NTQzQWY8fnQvcqYA2OqTbYbQCFz0AAZe6hGQmqTOOqFodJhEHlEZCr62qjHbb/5G9L7jsQrH/G71eext+PvgpbTsCntC3HTP/jgYgYFfcXaw+dfdfrL3/+kt71IaenkIkVFZlJVcRJVRVloKoQNZgL1VTrBV/3ZTQWz9Cx344K50hHq3vjeffhzLi9jWVasqGMi6Ug+57LLCXHHJEP7qHPkLhm6zOqxL6ZlPxDVjcbThFvo2CBxXsnaNVTUv3gCZNSAEVydQ0dYSWqtUSFbo67HoraE3SuXS/d5/zd9G7T/qxV4TbBsD9S9saAU/obb28U3dy9qEfnrj0pv/37T67ca+iKUXCWpELhyACR6kYetARfSOtPpbQEcFnvIeOHefWTrlvztwlXzWOXFHZDT28LKSsnFFlsEq6mlEkEorChCvfeQ9+jDNbTvJ55M9ZgHF76vk1JipM07A7S7iiRq5wF0TVCPvnRLGCVzxEdUKyRlEcKJJCc+va2qSzqt9w1G92f/vpl4n9j1/asLH4E3kEWhwBT+gtvoCtOHy77A8zNy76t+v0isVHdlIlCmwmLEt7SU6nG7Rk1dvVckKPjIvQkZoFoTvSR1oaOePWTblvQugQWcGC1lXT3D8doQsdcHGcgpFLVXORHFfGy9BF6SPSapu/I6YqoaO9jose60pwNXQpWkmRxtYCUvHQwM+oGFvCvnkmC+oFil846BOXXRoe+57fe0W4VvwE8GPeUQh4Qt9RyPrzbhYBa61IH7ryjDU3fvd/zxPDu1nKED0ymVsKSfMeOf6N6NspxKGSHaIyKKDiwzpCd0frkjkT9lj71TGEjscU/M7tM0MSNSQJUleCVEVRWqpRWs0oDpKRojqGph6pI/IeH7mPXZC8T73ZEfrIOCDjys8lTign1KHb35foAtCUZSWyccFu0HG5eMjRv9zpQ5+6TMzbZ43/M/MIeARGEfCE7u+GSUXALv/93i/8/qc/nrF88cF9shorYyRS6/ggz9PseYGXq4C2XN3u9lrxXy716ki/XQgdjzSca2ATdPdv/HEKcu5r2E1GCl7YkPeUITpTq2QkUhTQBY7UEakbl37PfzY2FT8VCZ3nCulXHhzm54r9cm0B4CFDSbVaampxZzo0Y+c/LvzQRRfSYSffJyCU7w+PgEdgBAFP6P5mmDQE7NKlhaGlV31q+d03/vneMptXSCsiEyiEcuTMmt5MYxxr8v+zcAyIHJFsPRU99qZt9U/0EXOXsYTOE6/3j4PQEXVztA4JGsk96yiUo0xQub/ChXJMh9K9Ar/PI3T3WIDqeIdqM4VktnSjsWIcltcKFpjBY1qG9kXwtVCsDyiiHvWSjtbs9rbTvtT9gddfKcQJzrLOHx4Bj4AndH8PTD4CdsmN+y79zQ9+XBx88XU9aRpFZJBdJc3k5Qg9j7hH0uv1YY7asoySE3c2Tf40GnrFoJ5yz/fOR6L0OqkjQufitnraApTtCFpwFXh5XYX31o2C+1yd0PF65aL21iB0bLNgTtIpxglDWYD2NUVhQDScBWZQd6Zij4OW7P2Ri84U+xz+fEMXwZ/MI9AmCPgIvU0WcqpPw66/t2fw7l9/rf/RRR+aW6De2nCZ4gjRJ+uZjqbOIfnJle2OqvOonffM6+THe+st3nuer9fmCB2EllcG5PvgeeqcZWLrYjSoApflkNvZIBGLCJcj9DGEzk9Mr3I0O2JHGyKOvACOLVGFIh1WiUQKDXtbER36JZqzev/TzrssPv38a70i3FT/a/fjaxYCntCbhfw0ui4K4ejxK0996oYffHNWNrSwS+pAGSvYZITbzkYjc6cGN4bQUdXOPthOu53JrI0Ifbyfeq78xnvpmzlG+s6N4SK5jqCH0sGKk4hF7z67rzlt+IDq1qzjzwOP9ily/zmnNdQBOJEbfv4QmnRQA7HbVCtKu+aU9Z7H/GzX933si2KPA71e+xRZOz+MqYeAJ/SptyZtNyL70v27rvztd78fvPz0W4qUhSKtiQD0jL3zMf3TIxPnKN19NxJgQhq1fre2shlLoxcXSXZE4VlFc4+6YYnYmAVprOLfukp6RP3AWliybH7iRtLsKnd4mkPSNbOWOjo6SFeqZFRKha4ibayVjeosDD9TojXHX3zFh8Wxp93TaPz8+TwC7YSAJ/R2Ws0pOBdrH4xKdz7ywQ0PXv/XhdJLexcEiRDRJ1TOEJGNVK1PwcG3wJDgpx4HcGiTlEIidiglXTZM6CHFREqQrAvPoMgMkbnAE1Huqf4a/es7GgLuYoB7HuR9o4hsLaNiElE5zSz1dNsnN/YP7nvK2VfMOOoD3xELF9Z29Hj8+T0CrYyAJ/RWXr0WGLtddstBz/36//17sOG5o2bYUlCwqYwCSZnCljiiy6mS/G0BMDczRIP+fBFSLCOuek9LGdUGne47Uu5Sh5s8Mo0I19T34aEb38xDW0NhGJKAIY+xpDRRoVCgSlo1A3FS2jB7/vI3XPSZM8U+J/hCuGYulL92SyDQ3L/mloDID3KiCNi1T3enj/7ykufvuvGSmbGd3y1TEUMgRKOKuUACTmpszuFJfaIYcx83SLmuKIc9dDizVYczloqNJMxt3L76+AK7VxOemfB4tuGN3H8uBDvMBdCzN4YU+uxlYG0hUM+XsuGDzv6TTxfO+MRVvhBuG4D1L522CHhCn7ZLv2Mnbq2V9MT1x6++5Yf/YDcsOay7UBARKRmoMqU1RaLYQwrSpS2uxb5jUdyKs9d781EQh730WMYU2IjSckrlwSpZ/Fy7fXQukmOZWDvi8NbMKnfuP69LBRU0UQCjGiGoIqQdCOPULNj3kT3Pv/gcsfcRy7cCCf8Sj8C0R8AT+rS/BXYMAHb14rlrb/vJN9JnFp09J0oLxhgBn/NYSsq0JhF3U01pCticw0foE10FpNzDIObKf5Vh71xSFMRk6xKxXP1es9zej2K5kcp3I3gv3fW9N6eb33UvWK5yDw1RCNlf0racFNVSKq474tyLPihOPPu2iWLj3+cRmG4IeEKfbis+CfNFIZy+68HTVt77q7/pKL34+r5EiLRaE5zixX8yJgtPc6O5NssT+sQXBV0CQeB609HSj+9Dgf5+SYEJqVKqUlpKSVcNu5cFIqRAu7a2ZhM6j7n+CYQiPmMU2SBVa8MOq153wo8Xvv+Cz4kFB6yfODr+nR6B6YWAJ/Tptd47fLbcc77q4f3X3fSd/2VeWnxqkWphAVpwOmO7z0pmSUQxaWWYiCAi0+p67Dsc1Fe5AB6S4IuOI9dzB7GjXY2T7DbiHvXqUJWEks65TQUEy3H3gNXknnQpyGrLlfpVXTO2Q5RfUPHywz791Y+IQ09+oJnY+mt7BFoNAU/orbZiU3y8dvXiztqz93x03d0/+bOedP2eUobcJRWQYrkYdEkjKgtG+s99ur0RSzpWiIZ91OsubSBwV/3u9tQpI0pkTNJGZLXmjMlY//R8LJv72UTGOdaTfez7c/0BlFrEcUhZrUqqGNWeG+iXR374UxfRuz/7Q18INxHE/XumMwKe0Kfz6jd47hydP3vTwSvvuPrrxZf/cHKHGpJGFtlNDaTuZFyRHoZ7muZ93+bs3jZ44lPgdOOV5XJSR0Ec0uyIzkHq6VBKKjUUUUhhGJPJXIEcp7/rPeE5me/oaeGyMkhIqZSCSNnhOK6s6Zn37MEfuuQsccg7lu7o6/vzewTaDQFP6O22ok2cjx1Y0Zfe++OLXrr7F5+cE1YWFKUSqYlIsy6c8y+HtCtKn+BvziTihWUasmKbk4oFqSP9HsmQIpFwb3plsETl4RpMzCgJYyITEJZixEd9XMS+I8nd1VN0UKarJMOa2VjsGprzrvMv6jplv2u8m1pDbgt/kmmGgCf0abbgO2q61tpw+MFrzhi876ovdWxccnCkKqKYxKKmLafZlYj50qFN69H5qL+5J/XtX5UtEbrTvZckjCuUo8yykUu1XOXq94IoEqFILheasaMR+44kc36Yg0IcJRQUI7VqYFUw6/DjrppzwecuE3O8Xvv23xH+DNMRAU/o03HVd8Cc7bpH5y//nyu/pp+79bzdu4UoD5ckS3laS3BKy0QySuiU1Yvh8CPnhe6PBiGQm7qMcaaDSx3/2AgKITRjLJXLVapsLFOsiqwmB/KGtj4K7PBf/v1mtfYbMNS840GJkIZlkK4WdvCID118lnjr+Xc04PT+FB6BaYmAJ/RpueyNnbRdurSgV/7ufavu//XlhYGlB/QlJFJlpIGLFnqLhSQlIr4oUu2Iy4K6RaqB3acn9MYtyDhCt8ZJqyJKR2cBiBSkDkOUdEiRHjAk01FCB4HnhI4uhLyCvhEDHFsg5widyEah+mM5C3Z68zv/Y+67zv0rsetBGxpxLX8Oj8B0RMAT+nRc9QbOGYVw6dL7Xj942//9ilj1xOkdIhU2rQguuDKQDXFReC4Zju+xjx5Q5grlPKE3cDVGT5X/YYNEnU3tKDmjpY1/noWkNhgyZSKlFL8ORx6Vb9ENbwIjHrtHj7dzOj+wupSVtJm/zyPzPvi5PxGHnPD4BE7t3+IR8AjUEfCE7m+F7UIAeu0bH7/9o0P3/fyyrsqqBUkcS5Olrsd8TBU7SByROCreXZW7YitPsj5C364F2MKb8z/svE8deu8jfer1qi1zOwsAABIGSURBVHa0tAWViM1c0kqVH7zQuw6TFLweGuuj/rWbKspZNLKPsV+VZJyLPd7DLXOwasXjmnDbLni0Q5EeOuSFpUAQjHRrT6/fEB954SUX0umfvdK3qe2IO8Gfczoh4Al9Oq12g+dqrQ3o6Z8dueG2a75ceumFk2d0SCJtAqNTKoTYP2fpsk2EYxypo1CrwYPxp9tmBFAkl1BMWSWlylCNsori9jaotkEmFpKsAnr7ImQPdW2Vk4kN4KduXJRvXEsiHtiwtWIo4fUNqEaCFCVWUpqmFCQFUhRSZmJ2VpuRkF5SqpjaYW+558B3n/sxOvDoJUI0SYN2m5Hzb/AITE0EPKFPzXVpiVHZNU/MS+/8/qcrz913ca1cntlRTLBRS9ZAX1ySVRlHY2OPfL/cRepe9rXZCw1DFFS+q4pilzZTtqwkF2qQekQGxi5QoxOIwDUTugiJtFRcXCcN9udHCR21Ek44KCNJiiLtZoj11jImZdF3rqgrIb3MJqvmnPuZz/WdfMAvhTgobTYW/voegVZHwBN6q69gk8aPNrXKg9eeuXrR9/+mu/Ly/qEMgjCSEiSOaA0a7fh3MK6A3RN6kxZsC5fFB0AIhlaWdIVYfMZUiGQmSFp4qct6qlyTQbYFufLAZV3cvjgq6PlV/DMVuNQ7bFzxLAdS1yajEH3wQlLZWEq6eqt/XL023vXN7/j2jLPP/wdacMhKH51PrfvCj6Y1EfCE3prr1vRR25V37Lbunpu/OPj4rR+dFdawZx6BwKFkInin1EXmIHcfoTd9ubY8AKTNRcgubZCIRZSeljOyFUuwZIVzW646lxe28Yoi5c7KfyBuQQF+KDTpIOOVF6bgDGKEYiU4FEmmWlFQLJoBE6ardXHx4Z/49GV09Bn3+b3zKXx/+KG1FAKe0FtquabGYO3q1Z2lx3589rrHb728WFm/Z5fQIfzPYcCCyFwYzdFbFLq+Zk/oU2PdtjQKEC+81PmrDkhXNVWHq0zuuckL5GNB7Ny5wOTNuq2U1YvgYg23FxB6hSNxoYskLMxaLeElqVCw6KFCoaPy2JrB5MCzPvbnne887b/ErIWDUxsdPzqPQOsg4Am9ddZqSowUxE1L73z9qt9970vZysffMyOJbWCyUGtNgRQUScEpVqtd/7Mn9CmxbFscBFrTsHaoZINEbABFv8xSVk6pVsn4KxOzddarKJLLky5ChlTDExzS9kaRpIyMzPh7SwkJE1GkJSkU0xUUUZykqzYM2HDP19+21wV/9jk64Jgnhcgb56c2Tn50HoFWQMATeius0hQao92wpHf4gRsv2PiH6y8vVlbPLQRJYLTm+whkzoIhxhVMwWYN+6k+Qp9CCzhuKLxeLPcqeL88RLGiEZxuRwq+PDBMOiMSSjCpo/odhM7ROnbIJVrVoM+P2gnFgkE4UPFONqTAJJRlNYo6BQ2RqbykYjr0gx//DB1yyk/ELruUpy4yfmQegdZDwBN6661Z00aMQjh68n/esuK2q/822fDk0b2ygoA9MHqMF7dxpiuBcJrgVjid8PzwRXFNW77NXnhUvW1UVAZ74iiUC2xA5aEyZeWMTMW4djaRcMEbaTy4CTIyIC0NWena1GLIyFpUwbs2NqsLTqmO0vS5wSEx87gTfzz/9HP/jvY++gUfnU+te8GPpvUR8ITe+ms4aTNAm9rQfT+7dOX9N1y6W1dQkFk5QGS3LYcn9G1Ba8e/Nm8fHMmjcyshtsjdvnosYyptLLP4TN6jDkKHLauUIeFhDuSdRSlnZzoUiuiIFGWUCksmKpCqWSpSpF6Oist3+9jHPxsce+hNQiys7fjZ+St4BKYXAtv2aTy9sPGzHRtZr1zZQWsXn7Hstu9dEfc/v/esQixstSptfQ91a8HyhL61SE3O615J6C5lzg5t+GoCIiVJlxRVhqokakShjDn9Dt2gWISkhKVqkHLangndQADQUhpYKhlFXT2zKyuWrY/3ffuZ/yLfc+Y/0vyDX/JtapOzvv4q0wsBT+jTa70nNFvotdMLt++z8aHfXr7m8d9/ZG5By9gqIRGebeXhDVi2EqhJf1m9g7xem4b9cBxcxI5WNiMokQnvp1cGK1QdRqROEI3lKD5E6l0IUqHbWonRuWgFpUjAB4aCSOgNKZmsd6+b9/3wJ6+gNx7/iBA4gz88Ah6BRiPgCb3RiLbh+dCmRs9e/f4lt//iaz0yndNBKlRpiQphMGLk8VrT9oT+Wgg16/d50aKpG+i4/vJc4C9A4xrS6xQxkdeGa1QerjDBJzIkqSxJG5GRoVOI05bgspciHR8ICmNRe2rdUHjoOZ/6XHLSSd/3bWrNWmd/3emAgCf06bDK2zFHjs6fv+vAoXu/c8X6J+99784z51uTpTJTwxRBNQxH3Xt7Wy6TC854ot8W1Br/WkTZrgxilNDHXgVROlLroYjYdtWmhkpDZUorGTbKqUPEJJUko6Hdb8kITTaQpIOYTBDbwUrZ2F33vn6vD336b3ybWuPXz5/RIzAWAU/o/n54VQTsiif6Sk//7qP9D131V716Y0+gQhkGMWkJy82ULTcnYrTiCX1q3HggdH4my9vBWbN99LDKUhBE3NLGRi3QANREtXKNKoMlClKYucQU6QJBVcgElpQwlFlLFYptKexYu/8Z5/wlvektPxNz9h+aGrP2o/AItCcCntDbc10bMituU3v4JyevuP+G/5QvL5k/r2hJDa0TYRJTTXaSgsUmhD63wiRL1vuT84F5Qm/IEm33SXJCZynXMWfL/evZgAW95gjj0X8uQ8L/sjSltFSjan9KsQGhxyTCiHSAlLsmk1bUeopl7xtP+s6cd5z2LdrvLX/0hXDbvVz+BB6BV0XAE7q/QbaIgF318JzyvVddunLxor+aFYaiSDVKRIUyraisE4oL3WRVjQkdUXpuizr+q7vAphKwntCnxo03ltA5Uh83LPSQZ1lGUPB1/eROWQ7rDVW56oYyUYWIytAdCMiEARkpIDhj18adfzzwAx//C1r41hu8iMzUWG8/ivZGwBN6e6/vhGdnly4t0NqbT3/x1qv+T3e2cW5g7aZGK9ZVNUumACiFOTLY3NcJD8K/ceohMKZeAsl6KMcNrF5P4aChrqSXyjWictKpVxgp5r/lxP9v7mkf+Geata93U5t6K+lH1IYIeEJvw0Xd3imxXvtzv9iv/55fX6Ffevz9BV2qu5cTaQqZtAOLziPDKVh/TF8EAjzmlTXRhiqlA4ZEPFMvKxuRvP6N1+192nv/lt7wtj94Rbjpe3/4mU8uAp7QJxfvlriatSuKpVt+ceYf77n+P+bHJdmhy51jt8kRrUtKeS6KAhoVJ2mJ6flBNhABmO8UwgLRsOD99NR262VlIQ5413u/FB550nfE7gf3N/By/lQeAY/AqyDgCd3fHpsggOi89NzdB79w7w3/VF766PEzxbBNTK1eCu2+wIAjtE65UwcRaQGREVRKu/o4/3X64ABCh2d6UIGhS0Ivri/b3r0OuHa/U8/+Kh36jsd8dO4/YDwCk4eAJ/TJw7olrmStjTc8ff/h65f94eyObGC4Q2YBGQqRaocRh1P5NhSYjPCVKGKvLVA9vpPCNUBJK+DxMULw0loBTw/Igjb8qxC8JWAETNl3wPl31Lhf5bwCk2nyAxLjma9r/tUKawQcz3nDhaAVaLQQCZzagoJd1T/Yv/uBr7slOuyAR4XYs9oSN70fpEegTRDwhN4mC9nIaVj7REwvUhd1pYY2EtEMVLz1WLLGktGWrHbF0OyxOYFDhnV/zld579a8Jn87XjuVD1FX4AFu+HeOH8acfz/+560wH4xRBoI2SkF9UvC9UhzMaKeDq0KIrdcFnspz9WPzCLQQAlP7g7CFgPRD9Qh4BDwCHgGPQDMR8ITeTPT9tT0CHgGPgEfAI9AgBDyhNwhIfxqPgEfAI+AR8Ag0EwFP6M1E31/bI+AR8Ah4BDwCDULAE3qDgPSn8Qh4BDwCHgGPQDMR8ITeTPT9tT0CHgGPgEfAI9AgBDyhNwhIfxqPgEfAI+AR8Ag0EwFP6M1E31/bI+AR8Ah4BDwCDULAE3qDgPSn8Qh4BDwCHgGPQDMR8ITeTPT9tT0CHgGPgEfAI9AgBDyhNwhIfxqPgEfAI+AR8Ag0EwFP6M1E31/bI+AR8Ah4BDwCDULAE3qDgPSn8Qh4BDwCHgGPQDMR8ITeTPT9tT0CHgGPgEfAI9AgBDyhNwhIfxqPgEfAI+AR8Ag0EwFP6M1E31/bI+AR8Ah4BDwCDULAE3qDgPSn8Qh4BDwCHgGPQDMR8ITeTPT9tT0CHgGPgEfAI9AgBDyhNwhIfxqPgEfAI+AR8Ag0EwFP6M1E31/bI+AR8Ah4BDwCDULAE3qDgPSn8Qh4BDwCHgGPQDMR8ITeTPT9tT0CHgGPgEfAI9AgBDyhNwhIfxqPgEfAI+AR8Ag0EwFP6M1E31/bI+AR8Ah4BDwCDULAE3qDgPSn8Qh4BDwCHgGPQDMR8ITeTPT9tT0CHgGPgEfAI9AgBDyhNwhIfxqPgEfAI+AR8Ag0EwFP6M1E31/bI+AR8Ah4BDwCDULAE3qDgPSn8Qh4BDwCHgGPQDMR8ITeTPT9tT0CHgGPgEfg/2+vjmkAAAAQhvl3jYklPDUASZ8RiAQEPYI0Q4AAAQIEngKC/tT3TYAAAQIEIgFBjyDNECBAgACBp4CgP/V9EyBAgACBSEDQI0gzBAgQIEDgKSDoT33fBAgQIEAgEhD0CNIMAQIECBB4Cgj6U983AQIECBCIBAQ9gjRDgAABAgSeAoL+1PdNgAABAgQiAUGPIM0QIECAAIGngKA/9X0TIECAAIFIQNAjSDMECBAgQOApIOhPfd8ECBAgQCASEPQI0gwBAgQIEHgKCPpT3zcBAgQIEIgEBD2CNEOAAAECBJ4Cgv7U902AAAECBCIBQY8gzRAgQIAAgaeAoD/1fRMgQIAAgUhA0CNIMwQIECBA4Ckg6E993wQIECBAIBIQ9AjSDAECBAgQeAoI+lPfNwECBAgQiAQEPYI0Q4AAAQIEngKC/tT3TYAAAQIEIgFBjyDNECBAgACBp4CgP/V9EyBAgACBSEDQI0gzBAgQIEDgKSDoT33fBAgQIEAgEhD0CNIMAQIECBB4Cgj6U983AQIECBCIBAQ9gjRDgAABAgSeAoL+1PdNgAABAgQiAUGPIM0QIECAAIGngKA/9X0TIECAAIFIQNAjSDMECBAgQOApIOhPfd8ECBAgQCASEPQI0gwBAgQIEHgKCPpT3zcBAgQIEIgEBD2CNEOAAAECBJ4Cgv7U902AAAECBCIBQY8gzRAgQIAAgaeAoD/1fRMgQIAAgUhA0CNIMwQIECBA4Ckg6E993wQIECBAIBIQ9AjSDAECBAgQeAoI+lPfNwECBAgQiAQEPYI0Q4AAAQIEngKC/tT3TYAAAQIEIgFBjyDNECBAgACBp4CgP/V9EyBAgACBSEDQI0gzBAgQIEDgKSDoT33fBAgQIEAgEhD0CNIMAQIECBB4Cgj6U983AQIECBCIBAQ9gjRDgAABAgSeAoL+1PdNgAABAgQiAUGPIM0QIECAAIGngKA/9X0TIECAAIFIQNAjSDMECBAgQOApIOhPfd8ECBAgQCASEPQI0gwBAgQIEHgKCPpT3zcBAgQIEIgEBD2CNEOAAAECBJ4Cgv7U902AAAECBCIBQY8gzRAgQIAAgaeAoD/1fRMgQIAAgUhA0CNIMwQIECBA4Ckg6E993wQIECBAIBIQ9AjSDAECBAgQeAoI+lPfNwECBAgQiAQEPYI0Q4AAAQIEngKC/tT3TYAAAQIEIgFBjyDNECBAgACBp4CgP/V9EyBAgACBSEDQI0gzBAgQIEDgKSDoT33fBAgQIEAgEhD0CNIMAQIECBB4Cgj6U983AQIECBCIBAQ9gjRDgAABAgSeAoL+1PdNgAABAgQiAUGPIM0QIECAAIGngKA/9X0TIECAAIFIQNAjSDMECBAgQOApIOhPfd8ECBAgQCASEPQI0gwBAgQIEHgKCPpT3zcBAgQIEIgEBD2CNEOAAAECBJ4Cgv7U902AAAECBCIBQY8gzRAgQIAAgaeAoD/1fRMgQIAAgUhA0CNIMwQIECBA4Ckg6E993wQIECBAIBIQ9AjSDAECBAgQeAoI+lPfNwECBAgQiAQGuoW7lh1k6p4AAAAASUVORK5CYII=;" vertex="1" parent="1">
          <mxGeometry x="240" y="193" width="75" height="75" as="geometry" />
        </mxCell>
        <mxCell id="1Q1OTanEVwLeCe3aNY2j-13" value="Netbird" style="text;html=1;align=center;verticalAlign=middle;whiteSpace=wrap;rounded=0;" vertex="1" parent="1">
          <mxGeometry x="241.5" y="252.5" width="60" height="30" as="geometry" />
        </mxCell>
        <mxCell id="1Q1OTanEVwLeCe3aNY2j-14" value="" style="shape=image;verticalLabelPosition=bottom;labelBackgroundColor=default;verticalAlign=top;aspect=fixed;imageAspect=0;image=https://nginxproxymanager.com/icon.png;" vertex="1" parent="1">
          <mxGeometry x="442" y="217" width="56" height="56" as="geometry" />
        </mxCell>
        <mxCell id="1Q1OTanEVwLeCe3aNY2j-18" value="" style="outlineConnect=0;dashed=0;verticalLabelPosition=bottom;verticalAlign=top;align=center;html=1;shape=mxgraph.aws3.internet_gateway;fillColor=#F58534;gradientColor=none;" vertex="1" parent="1">
          <mxGeometry x="520" y="222" width="44.08" height="46" as="geometry" />
        </mxCell>
      </root>
    </mxGraphModel>
  </diagram>
</mxfile>
